<?xml version="1.0" encoding="UTF-8" standalone="no"?>
<svg width="800px" height="200px" viewBox="0 0 800 200" version="1.1" xmlns="http://www.w3.org/2000/svg" xmlns:xlink="http://www.w3.org/1999/xlink" xmlns:sketch="http://www.bohemiancoding.com/sketch/ns">
    <!-- Generator: Sketch 3.2.2 (9983) - http://www.bohemiancoding.com/sketch -->
    <title>fpo-sitebanner-800x200</title>
    <desc>Created with Sketch.</desc>
    <defs></defs>
    <g id="Page-1" stroke="none" stroke-width="1" fill="none" fill-rule="evenodd" sketch:type="MSPage">
        <g id="fpo-sitebanner-800x200" sketch:type="MSArtboardGroup">
            <g id="Bleep" sketch:type="MSLayerGroup" transform="translate(9.000000, -18.000000)">
                <path d="M206.444138,27.28223 C225.06955,30.5198814 244.605936,31.1486285 259.179264,36.3660601 L257.954707,38.6604023 L264.69147,41.1278669 L261.97513,44.3809825 C261.97513,44.3809825 264.832808,44.9467417 267,46.2038587 C261.561291,52.5245207 254.514337,60.8849334 239.234315,82.3498384 C225.541055,101.585652 220.01302,117.049738 217.187002,136.41115 C214.798945,132.514577 213.730425,131.004377 213.730425,131.004377 L213.35503,135.782403 C210.487175,129.888323 210.94059,130.308494 209.569417,128.7734 C202.817955,121.21448 177.713958,109.353903 163.099548,103.974288 C164.293953,81.720337 193.127027,39.100563 206.444138,27.28223" id="paper-1" fill="#EFF3FF" sketch:type="MSShapeGroup"></path>
                <g id="bleep" sketch:type="MSShapeGroup">
                    <path d="M132.01835,152.057667 C130.379205,157.953805 129.256759,163.970042 128.153395,169.986279 C125.470749,170.481689 122.743205,170.275268 120.038485,170.440405 C115.447307,170.887025 110.829938,170.568011 106.224543,170.684357 C102.434417,170.819469 98.8500728,169.385781 95.1793004,168.687702 C93.2041697,168.346169 91.5205008,167.223614 89.8476822,166.195637 C84.1535139,162.724009 78.3579514,159.410012 72.4651101,156.287424 C78.1821015,157.548469 83.9510995,156.317448 89.7582607,157.056811 C97.4582398,157.728618 130.675157,153.029723 132.01835,152.057667" id="Fill-1" fill="#7356B0"></path>
                    <path d="M116.909854,1.35524838 C117.347608,0.818553509 117.853083,0.251833748 118.582673,0.15012444 C121.351372,-0.142242907 124.150004,0.293117969 126.746596,1.27605774 C133.268007,4.15506919 139.317616,8.16339174 144.324099,13.2638696 C151.560134,19.9256416 156.43155,28.8693051 158.912529,38.3459104 C161.033578,45.431784 161.774018,52.8141533 162.680206,60.1252135 C163.005341,66.3253529 162.099902,72.5292454 160.749599,78.568001 C159.84416,82.2910871 158.836951,86.0141732 157.250561,89.5120727 C155.309104,94.1396585 152.207411,98.4106989 147.923035,101.101679 C146.583583,100.125871 145.072397,99.2851737 144.061821,97.9453131 C143.515938,96.4027845 143.538761,94.7326501 143.15264,93.1525903 C142.322778,89.5830065 141.611522,85.9841483 140.728157,82.4261991 C139.557446,78.3052832 138.468673,74.1580956 137.065616,70.1084888 C136.90099,69.440435 136.755072,68.7686282 136.590447,68.1043275 C135.127526,58.5826849 132.931273,49.1882728 130.334682,39.922217 C128.306796,33.5231628 126.349998,27.1015898 124.056467,20.7926103 C121.579603,14.3481434 119.293555,7.83311797 116.909854,1.35524838" id="Fill-2" fill="#D6836F"></path>
                    <path d="M115.170437,6.41444201 C115.596966,4.67675162 116.352747,3.05165455 116.909854,1.35524838 C119.293555,7.83311797 121.579603,14.3481434 124.056467,20.7926103 C126.349998,27.1015898 128.306796,33.5231628 130.334682,39.922217 C132.931273,49.1882728 135.127526,58.5826849 136.590447,68.1043275 C135.295518,65.3683096 134.338446,62.4971797 133.216,59.6898527 C131.404747,55.2236506 129.272099,50.9000667 127.296595,46.5089268 C126.110543,44.1215729 125.137757,41.4272145 122.8446,39.8692982 C121.298992,43.3638198 121.156815,47.2633021 119.899676,50.8471478 C119.817363,47.5335261 119.656479,44.2007636 119.020426,40.9393101 C118.746924,39.4230533 118.055123,38.0306491 117.134717,36.8071349 C114.440847,38.8826053 111.683371,40.868001 108.869774,42.7779592 C109.202766,40.9618288 109.232698,39.1152982 109.416031,37.2875331 C109.808887,34.0973888 110.485722,30.9522817 111.152455,27.8109278 C112.383029,20.6574983 113.374523,13.4515251 115.170437,6.41444201" id="Fill-3" fill="#7356B0"></path>
                    <path d="M25.0941498,4.9770005 C25.457074,4.76269786 25.8199982,4.54539273 26.1866639,4.33146541 C27.6084287,6.48950423 29.2060435,8.56084619 30.2723671,10.9331877 C32.7342652,16.9115182 35.1999048,22.8943524 38.0060197,28.7229338 C40.3743806,34.172451 43.2104274,39.3967815 46.1662017,44.5422967 C50.6260536,52.330002 55.5124349,59.9075331 61.2743241,66.7982449 C64.8362192,63.6681503 68.8583172,61.1044002 72.9402789,58.7136685 C75.7912916,57.1790214 78.8218957,55.9780259 81.8753228,54.9083892 C79.56271,56.5522519 77.493668,58.5076227 75.2188442,60.2002758 C71.3127323,63.2023892 66.9310775,65.5597183 63.1678904,68.7532404 C69.5164447,64.8503803 76.1953722,61.5476426 82.7429735,58.0047058 C91.1800255,53.7299124 99.5310233,49.2261792 107.32454,43.8400896 C108.982018,43.8029338 110.392184,42.8567745 111.795242,42.0802558 C113.60238,41.070669 115.357511,39.9672544 117.11601,38.8713459 C118.975529,45.3567218 119.518044,52.1310871 119.794914,58.8454027 C122.110894,53.6398377 122.518716,47.8562937 123.525176,42.3054425 C128.029926,50.1419383 131.603045,58.4700916 135.217321,66.7457013 C135.669667,67.95045 136.276162,69.0913957 137.065616,70.1084888 C138.468673,74.1580956 139.557446,78.3052832 140.728157,82.4261991 C141.611522,85.9841483 142.322778,89.5830065 143.15264,93.1525903 C143.538761,94.7326501 143.515938,96.4027845 144.061821,97.9453131 C145.072397,99.2851737 146.583583,100.125871 147.923035,101.101679 C149.539732,102.306428 151.533944,102.906551 153.041389,104.261799 C151.586325,104.52827 150.17541,104.055378 148.783951,103.706338 C151.455747,105.609166 154.463528,106.975298 157.153282,108.851854 C155.252607,108.247603 153.3003,107.838514 151.436665,107.117916 C150.388675,106.704699 149.292794,106.401072 148.159123,106.3748 C148.073069,106.367294 147.901335,106.352282 147.818648,106.344776 C151.275781,110.450304 155.462505,113.824726 159.219331,117.63038 C160.386301,118.718782 161.646808,119.701722 162.701907,120.906846 C159.907765,120.846796 157.179847,120.287583 154.470637,119.645801 C155.421348,120.403554 156.44689,121.102008 157.613859,121.473566 C159.177801,121.987742 160.843136,121.841371 162.4632,121.931445 C160.674395,123.061132 158.474401,123.357628 156.828147,124.731266 C158.897189,124.742526 160.816572,123.916841 162.701907,123.158713 C161.007388,126.127048 158.478143,128.458106 156.251584,131.002715 C153.494483,134.703282 150.041091,137.803352 146.479196,140.697 C144.061821,142.772471 141.604413,144.806657 139.044488,146.705731 C136.702317,148.488459 134.397562,150.319977 132.01835,152.057667 C130.675157,153.029723 129.305773,153.964248 127.932647,154.895019 C128.059858,154.452152 128.183327,154.013038 128.314279,153.573924 C129.032644,152.620634 129.799649,151.693616 130.267335,150.582695 C128.523802,151.873765 127.015983,153.453825 125.27245,154.752401 C124.269358,155.529295 123.064973,156.121911 122.391506,157.247845 C120.973857,158.160226 119.360902,158.696921 117.78162,159.252381 C117.834375,159.038454 117.938763,158.610599 117.991518,158.396672 C120.307124,156.835378 122.552016,154.970082 123.910549,152.47051 C121.007156,154.309534 118.870767,157.135627 115.870095,158.850798 C115.866353,158.989664 115.85887,159.267394 115.855129,159.405884 C114.919757,159.777817 113.939488,160.040535 112.933028,160.070559 C105.199375,160.498414 97.4582398,159.980485 89.7582607,159.308678 C83.9510995,158.569315 78.1821015,157.548469 72.4651101,156.287424 C63.750814,153.993897 55.0817898,151.325811 47.0641584,147.14447 C44.4600838,145.785844 41.8073699,144.453865 39.4726824,142.659878 C44.0896767,144.161122 48.3250394,146.994721 53.2263867,147.523909 C49.6420426,145.527254 45.6872914,144.299612 41.9757368,142.55479 C39.9665586,141.556463 37.785272,140.921812 35.8696309,139.736204 C38.7767659,139.57482 41.915873,140.216602 44.568587,138.677827 C41.6315201,138.760395 38.7056776,139.18825 35.7611278,138.895507 C36.4308539,138.238713 37.0519406,137.518115 37.3175862,136.598603 C40.0750617,134.887185 43.0009041,133.457249 45.7359307,131.7083 C47.329804,131.550669 48.8638134,130.976068 50.0797965,129.914313 C45.8294679,129.380996 41.777438,131.193748 37.5570413,131.284198 C40.539006,128.919738 42.8362787,125.8572 45.530149,123.199997 C45.3318502,123.579061 45.1447759,123.965632 44.968926,124.359708 C46.6525949,123.530271 48.2876245,122.546956 49.622961,121.210848 C50.8692502,119.938544 51.5838741,118.268409 52.2573417,116.647065 C49.0845611,118.861401 46.2672218,121.649962 42.7165511,123.282565 C41.5492074,123.777976 40.3856051,124.299283 39.293091,124.9527 C38.0584005,125.526926 36.6478601,125.7067 35.3009249,125.553198 C35.6301758,125.147862 35.970651,124.731266 36.4570443,124.509833 C41.1675757,122.13036 45.8893317,119.683332 50.0943883,116.466916 C46.3495345,117.709196 42.3910418,117.881839 38.4998959,118.230878 C38.2903726,118.163322 37.8713262,118.027835 37.6618029,117.960654 C41.8709752,118.36599 46.2559974,116.789683 49.0920441,113.622058 C52.3621033,109.733835 53.1927133,104.460714 53.2529512,99.532879 C53.2110466,96.5078716 53.4658418,93.4490861 52.9046188,90.4578566 C52.0369681,85.7401961 50.9104065,81.0675729 49.5260565,76.4771429 C48.9461261,74.4545913 48.6804806,72.3637332 48.2090533,70.318663 C46.3682419,62.4258706 44.0934182,54.6419184 41.6202956,46.9292753 C39.7196205,41.8062787 37.8563602,36.6682698 36.0043244,31.5265077 C34.2607917,26.6061792 32.5696398,21.6558258 30.3659043,16.9193997 C28.5438004,12.9936456 27.0509473,8.91776705 25.1240817,5.04080338 L25.0941498,4.9770005" id="Fill-4" fill="#7356B0"></path>
                    <path d="M22.8978973,6.99617422 C23.5788478,6.27933001 24.3346281,5.63379492 25.1240817,5.04080338 C27.0509473,8.91776705 28.5438004,12.9936456 30.3659043,16.9193997 C32.5696398,21.6558258 34.2607917,26.6061792 36.0043244,31.5265077 C37.8563602,36.6682698 39.7196205,41.8062787 41.6202956,46.9292753 C44.0934182,54.6419184 46.3682419,62.4258706 48.2090533,70.318663 C48.6804806,72.3637332 48.9461261,74.4545913 49.5260565,76.4771429 C50.9104065,81.0675729 52.0369681,85.7401961 52.9046188,90.4578566 C53.4658418,93.4490861 53.2110466,96.5078716 53.2529512,99.532879 C53.1927133,104.460714 52.3621033,109.733835 49.0920441,113.622058 C46.2559974,116.789683 41.8709752,118.36599 37.6618029,117.960654 C33.3890253,117.529046 29.187336,116.252989 25.4421081,114.132481 C15.5795497,108.382715 8.69895607,98.5416824 4.75542932,87.9695441 C3.47584094,84.6743126 2.95577432,81.1651538 2.06904202,77.757329 C1.12244594,73.8199403 0.54251554,69.7969806 0.415304999,65.7507516 C0.332992297,64.264895 0.430270945,62.7561444 0.086054189,61.2961842 C-0.321767837,60.0238795 0.351699729,58.7703405 0.32925081,57.4905296 C0.209523243,50.6185834 1.44047229,43.7800398 3.35611337,37.2049647 C5.9788954,28.5127596 10.5771823,20.4698427 16.4887309,13.6129089 C18.5091336,11.2972394 20.7615085,9.20300348 22.8978973,6.99617422" id="Fill-5" fill="#D6836F"></path>
                    <path d="M129.39931,23.963989 C132.893858,21.4569109 136.98667,19.5465774 141.342135,19.4039592 C142.785974,19.5428243 144.380596,19.6516645 145.551307,20.6124609 C143.766618,20.6274734 141.98567,20.1846063 140.204723,20.4769736 C136.545175,20.8001165 133.17447,22.4777571 130.151349,24.4781653 C129.002712,25.1987626 128.157136,26.3059303 126.956119,26.9477123 C127.18435,25.5815799 128.36666,24.7333768 129.39931,23.963989" id="Fill-7" fill="#924E41"></path>
                    <path d="M9.81391904,25.7692354 C12.7659519,22.811784 16.7693424,20.9127098 20.9336169,20.5599174 C23.9941528,20.1654654 27.0696547,21.2613738 29.5465187,23.0257113 C30.0516194,23.3709975 30.3659043,23.903564 30.717604,24.3918437 C28.8131874,23.250898 26.9424441,21.9035311 24.6975523,21.5428571 C19.0366832,20.4398178 13.2411207,23.0031926 9.3537162,27.0865774 C9.31255985,26.5911667 9.39113107,26.0882499 9.81391904,25.7692354" id="Fill-8" fill="#924E41"></path>
                    <path d="M133.874128,33.7183245 C137.773131,30.75712 142.801314,29.0419482 147.706029,29.8976575 C149.801262,30.2804749 151.982548,31.2221304 153.247545,33.0089866 C151.37306,32.415995 149.723064,31.2300119 147.762526,30.8847257 C142.752301,29.9535789 137.615614,31.8230035 133.687053,34.9118138 C132.616988,35.7750294 131.73063,36.9347407 130.375838,37.3659731 C131.240121,35.8951289 132.5459,34.7579363 133.874128,33.7183245" id="Fill-9" fill="#924E41"></path>
                    <path d="M153.494483,33.159111 C154.010434,32.9864679 154.205365,33.1666172 154.074787,33.6958059 C153.558088,33.868449 153.367272,33.6882997 153.494483,33.159111" id="Fill-10" fill="#924E41"></path>
                    <path d="M10.113238,38.7399871 C13.6339767,36.4764858 17.7795438,35.0056416 21.996199,35.1557661 C26.2353032,35.3997183 30.0852928,38.0006242 32.2815454,41.577339 C32.6107962,42.0952683 32.7342652,42.7070254 32.8801832,43.2925107 C31.5145406,42.0051936 30.5978764,40.2712563 29.0077447,39.2203853 C27.4363204,38.1132175 25.8274812,36.8934564 23.9006156,36.5181453 C19.7774975,35.8088074 15.4934955,36.7208133 11.8343217,38.7099622 C9.7128989,39.6107088 7.92072688,41.1082001 5.82923594,42.0573619 C6.74215864,40.3988621 8.61290188,39.7308084 10.113238,38.7399871" id="Fill-11" fill="#924E41"></path>
                    <path d="M108.869774,42.7779592 C111.683371,40.868001 114.440847,38.8826053 117.134717,36.8071349 C118.055123,38.0306491 118.746924,39.4230533 119.020426,40.9393101 C119.656479,44.2007636 119.817363,47.5335261 119.899676,50.8471478 C121.156815,47.2633021 121.298992,43.3638198 122.8446,39.8692982 C125.137757,41.4272145 126.110543,44.1215729 127.296595,46.5089268 C129.272099,50.9000667 131.404747,55.2236506 133.216,59.6898527 C134.338446,62.4971797 135.295518,65.3683096 136.590447,68.1043275 C136.755072,68.7686282 136.90099,69.440435 137.065616,70.1084888 C136.276162,69.0913957 135.669667,67.95045 135.217321,66.7457013 C131.603045,58.4700916 128.029926,50.1419383 123.525176,42.3054425 C122.518716,47.8562937 122.110894,53.6398377 119.794914,58.8454027 C119.518044,52.1310871 118.975529,45.3567218 117.11601,38.8713459 C115.357511,39.9672544 113.60238,41.070669 111.795242,42.0802558 C110.392184,42.8567745 108.982018,43.8029338 107.32454,43.8400896 C107.836749,43.4839194 108.353448,43.1311269 108.869774,42.7779592" id="Fill-12" fill="#4B3774"></path>
                    <path d="M137.574084,42.0123245 C140.975095,39.5393997 145.390423,38.29712 149.558439,39.0214704 C150.84551,39.1603355 151.829896,40.0310572 152.622716,40.9881005 C151.055408,40.3425655 149.498575,39.4680906 147.755043,39.4943624 C144.061821,39.4789746 140.328192,40.6803454 137.416941,42.9772494 C136.451638,43.6790811 135.696232,44.6586431 134.603718,45.1840786 C135.157458,43.7879214 136.437046,42.9018118 137.574084,42.0123245" id="Fill-13" fill="#924E41"></path>
                    <path d="M5.6459031,56.5334863 C9.92242215,51.35044 16.458799,48.2616297 23.1223864,47.867553 C26.3325818,47.6836506 29.6288314,48.6969905 32.1318859,50.7311767 C33.0335841,51.6277949 34.1597716,52.498892 34.4179341,53.8162339 C32.5771228,51.8871349 30.433251,50.1719632 27.7955031,49.5076625 C22.6621836,48.374223 17.2482527,49.5076625 12.6162924,51.8642409 C10.0645986,53.2682797 7.60270053,54.9872046 5.85916783,57.3591707 C5.58603931,57.7494943 5.21937364,58.0568741 4.83400053,58.3312265 C5.02107486,57.7007038 5.20814918,57.0439094 5.6459031,56.5334863" id="Fill-14" fill="#924E41"></path>
                    <path d="M139.703738,53.5197382 C142.617982,51.85711 146.164911,51.147772 149.449936,51.9697033 C151.544794,52.634004 153.157749,54.3454226 154.257372,56.1994594 C156.177129,59.9413111 156.113523,64.400007 155.080873,68.3929418 C154.964887,68.5096635 154.736656,68.7498626 154.624412,68.8662091 C154.639378,65.5781085 154.358766,62.271993 153.700639,59.0480707 C153.037647,55.8988352 150.400274,52.8254126 146.991405,52.8591906 C144.492466,52.6640289 141.955739,53.2194893 139.797275,54.495547 C138.715611,55.1110572 137.750308,55.9742728 136.504393,56.2482499 C137.222758,54.9909577 138.487755,54.2249477 139.703738,53.5197382" id="Fill-15" fill="#924E41"></path>
                    <path d="M23.096196,56.657339 C26.7254379,55.0735261 31.1927728,55.7153081 34.1897035,58.3274734 C35.7985426,59.8546142 37.3849329,61.5889268 38.0209856,63.7732374 C36.4570443,62.6694475 35.570312,60.8683295 34.0101121,59.745774 C31.7539958,57.6444072 28.5213514,56.5184739 25.47204,57.2090463 C22.1683074,57.7419881 19.4632127,59.9600767 17.0873688,62.1819184 C12.4292181,67.3049149 9.48840971,74.173108 9.70915742,81.1614007 C9.85881688,82.895338 9.9074562,84.6401593 10.2067751,86.3594594 C10.105755,86.4532872 9.9074562,86.6446959 9.80643606,86.7385236 C8.46324242,80.7860896 8.8822889,74.3682698 11.5649347,68.8399373 C13.8846563,63.6493848 17.7870267,58.9167118 23.096196,56.657339" id="Fill-16" fill="#924E41"></path>
                    <path d="M137.525819,67.5713858 C138.330612,66.0175978 140.186015,65.6122618 141.753324,65.3007536 C143.938352,64.8278616 146.153312,65.7398676 147.923035,66.9705127 C150.988061,69.3128293 152.622716,73.2911269 152.454724,77.1117939 C151.429182,75.254004 151.260441,73.0396685 150.08973,71.2456814 C148.517932,68.3858109 145.547566,65.92377 142.135704,66.1226849 C140.452035,65.9834445 139.003706,66.9296038 137.525819,67.5713858" id="Fill-17" fill="#924E41"></path>
                    <path d="M115.65683,72.2027247 C118.810529,70.994223 123.076198,72.8670254 123.491503,76.4437402 C121.665657,76.0571697 120.66668,74.1843673 118.886107,73.6551787 C116.498665,72.7656914 114.126562,74.1093051 112.072486,75.2164729 C112.390138,73.5238198 114.223841,72.7581852 115.65683,72.2027247" id="Fill-18" fill="#4B3774"></path>
                    <path d="M140.657443,74.7248153 C142.476179,75.1601762 143.291449,77.0029537 143.92376,78.5792603 C144.742772,81.8932573 144.990084,85.635109 143.309783,88.7314256 C143.804033,85.3874037 144.159848,81.8782449 143.198286,78.5905197 C142.808797,77.0367317 141.668018,75.8920329 140.657443,74.7248153" id="Fill-19" fill="#924E41"></path>
                    <path d="M82.9899116,77.4007835 C85.2348035,75.7156366 88.1830949,74.6910373 90.9742438,75.3928691 C92.3174374,75.895786 93.7579097,76.9879413 93.5820598,78.601779 C92.2313832,77.9900219 90.9364548,77.0630035 89.399078,77.055122 C86.9933021,76.9654226 84.6473901,77.9524908 82.7429735,79.3711667 C81.6729084,80.1555669 81.1640662,81.5479711 79.8990696,82.084666 C79.9368586,80.0692454 81.5307319,78.5755072 82.9899116,77.4007835" id="Fill-20" fill="#4B3774"></path>
                    <path d="M24.4506141,85.6200966 C25.8461886,81.7056018 28.7233917,77.9224659 32.9213395,76.8978666 C35.1924218,76.6051239 37.7104422,76.7064579 39.6260833,78.1101215 C42.6417214,79.9904301 44.6434167,83.0529686 46.3832079,86.074223 C45.3168842,85.6422399 45.0025994,84.4078417 44.2505606,83.6309477 C42.3573684,81.5254525 40.1873063,79.558447 37.5832317,78.3840986 C35.693781,77.757329 33.5648752,77.8736755 31.686649,78.5041981 C28.2968622,80.2306292 26.0781608,83.6909975 25.1652381,87.3202558 C24.3009547,89.8048153 24.5179609,92.4582648 24.502995,95.0400299 C24.5478928,99.6867566 26.0931267,104.220139 28.633596,108.082466 C28.5063855,108.078713 28.2594474,108.067078 28.1322368,108.0637 C25.187687,104.393158 23.7808881,99.7092753 23.4179639,95.0629238 C22.965244,91.8840388 23.518984,88.6601165 24.4506141,85.6200966" id="Fill-21" fill="#924E41"></path>
                    <path d="M179.284549,86.5546212 C182.247806,84.9407835 185.607661,83.8824062 189.016155,84.283989 L189.031496,84.3215202 C189.562413,85.7176775 190.321934,87.1063285 190.201833,88.6526103 C190.041323,93.2614306 191.043667,98.3506491 188.451191,102.486577 C187.145412,104.603332 184.627018,105.207583 182.333861,105.507832 C183.635898,106.104576 185.06103,106.23556 186.456979,106.491147 C186.535924,106.517043 186.693067,106.562456 186.771264,106.588728 L186.823644,106.847317 C187.257657,108.949435 188.72432,110.690878 188.997822,112.848917 C189.566154,117.457737 188.85153,122.216682 186.958338,126.453944 C186.236231,128.064029 185.290009,129.557767 184.425352,131.089036 C186.131844,130.124487 187.870886,129.017319 188.86238,127.260863 C191.803937,122.441869 192.028052,116.590769 191.586931,111.111226 C196.697801,115.018215 200.813437,120.141212 203.891932,125.778384 C204.943663,127.76378 205.830022,129.83925 206.825257,131.854671 C204.816453,132.849245 202.564078,133.378434 200.71541,134.68827 C200.008643,135.153656 199.435821,136.242058 200.404866,136.778377 C202.66884,137.424288 205.089581,136.868827 207.378997,136.572332 C207.529031,140.734532 207.075937,144.892603 207.091277,149.055179 C206.844339,157.195676 207.271242,165.328668 207.420153,173.465037 C208.508926,188.155089 210.720144,202.780963 214.401767,217.046162 C215.068126,219.561122 215.827648,222.052812 216.411319,224.590291 C215.333397,224.008183 214.865711,222.754644 214.548059,221.643723 C214.368094,220.109076 213.986836,218.607832 213.440953,217.166637 C210.432424,207.460717 206.627332,197.976981 201.823264,189.022058 C201.085817,187.614641 200.46922,186.08675 199.290277,184.979957 C198.702864,185.989169 198.463409,187.145502 197.928376,188.177608 C196.244707,191.367752 194.183148,194.358606 191.781114,197.045834 C189.289284,199.800617 185.962728,201.853944 182.293078,202.529504 C179.591351,203.081212 176.822651,202.990762 174.083509,203.024915 C168.894441,197.338952 165.22741,190.369049 163.061464,182.998315 C160.393784,172.121799 160.921334,160.584736 163.936972,149.839579 C164.273705,148.713646 164.479113,147.553934 164.531868,146.375457 L164.57265,146.266617 C166.76591,140.505592 168.643762,134.575676 169.623657,128.484377 C168.153627,123.691655 166.608767,118.857272 166.219278,113.824726 C166.047544,111.062436 165.598192,108.307653 165.777783,105.533728 C165.875062,102.456553 166.87778,99.4878417 168.146144,96.7139174 C170.67913,92.2593499 174.831806,88.949106 179.284549,86.5546212" id="Fill-22" fill="#7356B0"></path>
                    <path d="M118.997603,87.2339343 C119.465289,85.6501215 120.973857,84.2914953 122.679226,84.3890762 C124.385718,84.3327795 125.848639,85.4286879 126.922446,86.6597083 C129.392201,89.7218716 131.408114,93.2163932 132.29522,97.0858507 C133.129572,99.1575679 133.264265,101.867314 131.475835,103.488658 C130.226178,104.85479 128.239449,104.629604 126.578229,104.509504 C125.354763,103.244706 123.8881,102.253885 122.364941,101.390669 C121.160931,100.230582 120.587735,98.5795889 119.888451,97.0933569 C118.844202,93.9632623 117.89798,90.4766222 118.997603,87.2339343" id="Fill-23" fill="#040205"></path>
                    <path d="M190.201833,88.6526103 C190.321934,87.1063285 189.562413,85.7176775 189.031496,84.3215202 C190.171901,84.5729786 191.156286,85.2110075 192.031794,85.9612544 C193.108968,85.9165923 194.19774,86.0667168 195.166785,86.5696336 C195.185867,86.6709676 195.21954,86.8698825 195.23488,86.9674634 C194.156958,88.0558656 192.764751,88.8515251 191.938256,90.1688671 C191.95659,92.1692753 192.582166,94.1509179 192.289956,96.1659632 C191.728733,99.9081901 189.734147,103.293496 187.201535,106.040774 C187.01446,106.153367 186.640312,106.378178 186.456979,106.491147 C185.06103,106.23556 183.635898,106.104576 182.333861,105.507832 C184.627018,105.207583 187.145412,104.603332 188.451191,102.486577 C191.043667,98.3506491 190.041323,93.2614306 190.201833,88.6526103" id="Fill-24" fill="#4B3774"></path>
                    <path d="M89.8140088,90.5817093 C90.9256044,90.3565226 92.0589007,90.7806242 92.990905,91.3657342 C94.3415816,92.5746112 94.7194717,94.4474136 95.1834161,96.1213011 C95.8456592,98.3769209 94.9963417,100.658812 94.6109686,102.876901 C93.8626713,105.669216 92.6803616,108.517827 90.5140409,110.5066 C88.837855,112.116685 86.2038485,112.030739 84.2171192,111.092461 C82.4810695,110.127911 81.5569223,108.172541 81.1487261,106.299363 C80.5354965,102.257638 81.8786901,98.0804251 84.276983,94.830231 C85.5790203,92.8669786 87.31507,90.8294146 89.8140088,90.5817093" id="Fill-25" fill="#040205"></path>
                    <path d="M126.552039,91.0842509 C127.255438,90.5929686 128.010844,91.3248253 128.400333,91.8799104 C129.055093,92.702217 129.717336,93.9482499 129.04761,94.9465774 C128.576183,95.8097929 127.31156,95.8285585 126.709181,95.1117143 C125.744252,94.0833619 125.167689,92.026657 126.552039,91.0842509" id="Fill-26" fill="#FFFFFF"></path>
                    <path d="M40.400571,93.2276526 C42.9560063,92.6909577 45.807019,93.8919532 47.2025934,96.1021603 C45.4104214,95.2502041 43.7866163,93.8206441 41.6913838,93.8427875 C40.2958094,93.816891 38.8066978,94.5675132 38.3352705,95.9561643 C37.078131,99.3827546 38.0658834,103.072063 39.1883294,106.38606 C38.3764268,106.014502 38.0883324,105.128768 37.8077209,104.355627 C37.0407162,102.100007 37.0444576,99.6717442 37.1903756,97.3219214 C37.3325521,95.4832723 38.6046575,93.7418288 40.400571,93.2276526" id="Fill-27" fill="#924E41"></path>
                    <path d="M92.0517919,96.9995291 C92.85247,96.5979462 93.5596109,97.3035311 93.7204948,98.0504002 C94.2102554,99.2701613 93.9633173,101.007852 92.706552,101.660893 C91.6701602,102.051217 90.6749248,100.902765 90.9065229,99.9006839 C91.0341075,98.8798377 91.2211819,97.6972325 92.0517919,96.9995291" id="Fill-28" fill="#FFFFFF"></path>
                    <path d="M96.9381732,107.143813 C101.252107,102.340206 107.563995,99.1613211 114.085406,99.3410951 C116.96635,99.2176177 119.817363,100.095846 122.364941,101.390669 C123.8881,102.253885 125.354763,103.244706 126.578229,104.509504 C128.516319,106.453616 130.084002,108.754273 131.22104,111.257222 C132.032942,112.97277 133.043518,114.609126 133.555727,116.451903 C134.162222,118.508608 135.056812,120.569066 134.7762,122.760883 C132.72175,123.853038 130.802367,125.177887 128.737441,126.247523 C128.617339,124.299283 128.576183,122.250085 127.629587,120.494004 C127.053772,119.375577 125.994557,118.617448 125.365987,117.540306 C125.407144,115.637478 125.680272,113.730898 125.459525,111.820189 C124.2398,117.007364 123.491503,122.343912 123.536401,127.684965 C123.65987,131.727065 124.411908,135.712869 124.70337,139.739957 C121.17889,140.381739 117.598662,140.700754 114.025542,140.92594 C113.655135,138.017279 113.527924,135.0861 113.176225,132.180816 C112.622485,129.126159 111.724528,126.097399 110.171811,123.398537 C108.742189,120.891834 106.984064,118.587424 105.083389,116.421879 C104.522166,115.720047 103.706522,115.329723 102.898361,114.995696 C103.452475,116.752152 104.727948,118.10665 105.794272,119.555726 C103.743937,120.775487 102.991898,123.207503 102.479315,125.395567 C101.951765,127.414741 102.419451,129.482705 102.939143,131.449335 C100.702109,131.160345 98.4721827,130.7734 96.305862,130.12824 C93.814032,129.467692 91.5276096,128.165363 88.961324,127.770911 C88.8827528,125.624507 88.6956785,123.454833 89.2082621,121.341832 C90.4089052,116.020296 93.2715165,111.137498 96.9381732,107.143813" id="Fill-29" fill="#D6836F"></path>
                    <path d="M148.159123,106.3748 C149.292794,106.401072 150.388675,106.704699 151.436665,107.117916 C153.3003,107.838514 155.252607,108.247603 157.153282,108.851854 C157.524064,109.122078 157.871648,109.425704 158.201273,109.76386 C154.571657,110.060355 151.025102,108.506567 148.159123,106.3748" id="Fill-30" fill="#4B3774"></path>
                    <path d="M188.997822,112.848917 C188.72432,110.690878 187.257657,108.949435 186.823644,106.847317 C193.715463,108.165034 198.840925,113.434402 203.245403,118.538633 C206.028695,122.126607 208.804877,125.830928 210.4212,130.120734 C210.574601,130.646169 210.982423,131.242539 210.63858,131.783362 C210.028344,133.232063 208.875592,134.327971 207.723588,135.345064 C207.271242,135.611535 207.390221,136.133218 207.378997,136.572332 C205.089581,136.868827 202.66884,137.424288 200.404866,136.778377 C199.435821,136.242058 200.008643,135.153656 200.71541,134.68827 C202.564078,133.378434 204.816453,132.849245 206.825257,131.854671 C205.830022,129.83925 204.943663,127.76378 203.891932,125.778384 C200.813437,120.141212 196.697801,115.018215 191.586931,111.111226 C192.028052,116.590769 191.803937,122.441869 188.86238,127.260863 C187.870886,129.017319 186.131844,130.124487 184.425352,131.089036 C185.290009,129.557767 186.236231,128.064029 186.958338,126.453944 C188.85153,122.216682 189.566154,117.457737 188.997822,112.848917" id="Fill-31" fill="#4B3774"></path>
                    <path d="M125.459525,111.820189 C125.680272,113.730898 125.407144,115.637478 125.365987,117.540306 C125.994557,118.617448 127.053772,119.375577 127.629587,120.494004 C128.576183,122.250085 128.617339,124.299283 128.737441,126.247523 C130.802367,125.177887 132.72175,123.853038 134.7762,122.760883 C134.970383,122.659549 135.355756,122.460634 135.546198,122.358925 C134.970383,124.641192 132.800321,125.894355 130.888796,126.941849 C129.156113,127.943929 127.330268,128.758354 125.440817,129.41102 C124.715343,129.62157 125.05956,130.521941 125.051703,131.066518 C125.418368,133.265841 125.276566,135.50232 125.32109,137.724537 C125.291158,138.351306 125.250001,138.978076 125.186396,139.604845 C125.066669,139.638248 124.823472,139.706179 124.70337,139.739957 C124.411908,135.712869 123.65987,131.727065 123.536401,127.684965 C123.491503,122.343912 124.2398,117.007364 125.459525,111.820189" id="Fill-32" fill="#924E41"></path>
                    <path d="M102.898361,114.995696 C103.706522,115.329723 104.522166,115.720047 105.083389,116.421879 C106.984064,118.587424 108.742189,120.891834 110.171811,123.398537 C111.724528,126.097399 112.622485,129.126159 113.176225,132.180816 C113.527924,135.0861 113.655135,138.017279 114.025542,140.92594 C113.688808,140.944706 113.355442,140.963471 113.023198,140.982237 C112.719763,138.178663 112.023847,135.427633 111.350379,132.699121 C109.486745,133.445615 107.448009,133.596114 105.464647,133.712461 C102.965708,133.449743 100.432722,133.30675 98.0007554,132.627812 C95.2208309,131.87719 92.6320964,130.567354 90.106593,129.208728 C89.53003,128.915985 88.9912559,128.476871 88.961324,127.770911 C91.5276096,128.165363 93.814032,129.467692 96.305862,130.12824 C98.4721827,130.7734 100.702109,131.160345 102.939143,131.449335 C102.419451,129.482705 101.951765,127.414741 102.479315,125.395567 C102.991898,123.207503 103.743937,120.775487 105.794272,119.555726 C104.727948,118.10665 103.452475,116.752152 102.898361,114.995696" id="Fill-33" fill="#924E41"></path>
                    <path d="M42.7165511,123.282565 C46.2672218,121.649962 49.0845611,118.861401 52.2573417,116.647065 C51.5838741,118.268409 50.8692502,119.938544 49.622961,121.210848 C48.2876245,122.546956 46.6525949,123.530271 44.968926,124.359708 C45.1447759,123.965632 45.3318502,123.579061 45.530149,123.199997 C45.799536,122.790908 46.0951134,122.400584 46.3682419,121.998626 C44.1607649,123.297578 41.7961455,124.370968 39.293091,124.9527 C40.3856051,124.299283 41.5492074,123.777976 42.7165511,123.282565" id="Fill-34" fill="#4B3774"></path>
                    <path d="M154.470637,119.645801 C157.179847,120.287583 159.907765,120.846796 162.701907,120.906846 C163.016192,121.139539 163.326735,121.379738 163.633911,121.631197 C163.323368,122.141244 163.009083,122.64829 162.701907,123.158713 C160.816572,123.916841 158.897189,124.742526 156.828147,124.731266 C158.474401,123.357628 160.674395,123.061132 162.4632,121.931445 C160.843136,121.841371 159.177801,121.987742 157.613859,121.473566 C156.44689,121.102008 155.421348,120.403554 154.470637,119.645801" id="Fill-35" fill="#4B3774"></path>
                    <path d="M139.119692,123.030732 C141.076489,125.489395 142.831246,128.157857 144.066311,131.051505 L144.047229,131.366391 C141.936657,132.706627 139.77071,133.963544 137.469696,134.950988 C137.376159,132.413509 137.623097,129.880159 137.884627,127.362197 C138.050001,125.860953 138.442483,124.382227 139.119692,123.030732" id="Fill-36" fill="#FFFFFF"></path>
                    <path d="M82.8623269,126.480216 C83.3565773,126.592809 83.4164411,127.13701 83.5885495,127.534465 C84.8419474,131.31047 85.4476941,135.262496 86.6337453,139.060644 C83.0572584,138.118613 79.5368937,136.947643 76.1130595,135.540226 C78.170877,132.376353 80.5238979,129.430161 82.8623269,126.480216" id="Fill-37" fill="#FFFFFF"></path>
                    <path d="M144.047229,131.366391 C145.494811,130.319649 146.9278,129.231246 148.544496,128.454352 C148.282592,129.137419 147.953341,129.827991 147.301949,130.218315 C140.997918,134.643232 133.758142,137.424288 126.675508,140.306677 C123.218748,141.222436 119.660221,141.736612 116.169414,142.513506 C111.922452,143.504328 107.534063,143.455162 103.205163,143.369216 C94.3673979,142.840027 85.3919459,141.237448 77.5307087,136.966033 C75.278708,135.679091 72.8991226,134.549405 70.841305,132.958086 L71.0283793,132.575268 C72.648443,133.693695 74.2797311,134.79711 76.1130595,135.540226 C79.5368937,136.947643 83.0572584,138.118613 86.6337453,139.060644 C95.2245724,141.316264 104.20414,141.582735 113.023198,140.982237 C113.355442,140.963471 113.688808,140.944706 114.025542,140.92594 C117.598662,140.700754 121.17889,140.381739 124.70337,139.739957 C124.823472,139.706179 125.066669,139.638248 125.186396,139.604845 C125.250001,138.978076 125.291158,138.351306 125.32109,137.724537 C125.444559,138.276244 125.553062,138.831704 125.661565,139.390918 C129.679921,138.137003 133.615591,136.635759 137.469696,134.950988 C139.77071,133.963544 141.936657,132.706627 144.047229,131.366391" id="Fill-38" fill="#4B3774"></path>
                    <path d="M37.5570413,131.284198 C41.777438,131.193748 45.8294679,129.380996 50.0797965,129.914313 C48.8638134,130.976068 47.329804,131.550669 45.7359307,131.7083 C42.5145109,132.199957 39.2631591,132.470181 36.0080659,132.631565 C36.5131666,132.169932 37.0332332,131.723312 37.5570413,131.284198" id="Fill-39" fill="#4B3774"></path>
                    <path d="M35.7611278,138.895507 C38.7056776,139.18825 41.6315201,138.760395 44.568587,138.677827 C41.915873,140.216602 38.7767659,139.57482 35.8696309,139.736204 C37.785272,140.921812 39.9665586,141.556463 41.9757368,142.55479 C45.6872914,144.299612 49.6420426,145.527254 53.2263867,147.523909 C48.3250394,146.994721 44.0896767,144.161122 39.4726824,142.659878 C37.7179252,141.740365 36.116569,140.53937 34.5675936,139.304596 C34.9567082,139.139084 35.3533058,139.004347 35.7611278,138.895507" id="Fill-40" fill="#4B3774"></path>
                    <path d="M153.97676,148.694505 C155.593083,146.574372 157.677465,144.390062 160.479838,144.13485 C161.872045,143.973466 163.065205,144.814163 164.112447,145.617329 C161.662148,147.625243 160.019635,150.492245 159.401916,153.600196 C158.422021,158.528031 158.564571,163.590978 158.687292,168.590121 C159.05059,173.615537 159.918615,178.896164 163.061464,182.998315 C165.22741,190.369049 168.894441,197.338952 174.083509,203.024915 C174.72031,203.749265 175.35973,204.476994 175.991667,205.216732 C171.790352,209.288857 165.758701,210.302197 160.255349,211.435261 C158.964162,211.566996 157.662873,211.551983 156.375053,211.735886 C159.660453,231.85256 161.198204,252.198175 162.496499,272.525024 C161.684971,272.783614 160.880177,273.057966 160.068275,273.312802 C151.791732,275.692275 143.396211,277.640515 134.996574,279.51707 C130.450668,280.428701 125.85949,281.074611 121.298992,281.904049 C121.100693,278.079629 121.16804,274.25108 120.931952,270.430788 C120.340797,270.385751 119.753758,270.39701 119.166719,270.460813 C119.536752,274.35992 119.173827,278.285674 119.604098,282.178026 C119.334711,282.215557 119.069066,282.256466 118.807162,282.301879 C118.941855,278.327334 118.635427,274.352789 118.605496,270.378245 C118.264646,270.370739 117.583696,270.363232 117.24322,270.355726 C116.909854,274.408711 117.366689,278.462446 117.340499,282.515806 C110.923476,283.52164 104.428629,283.641739 97.9558575,283.96826 C95.4640275,284.095866 92.9497486,283.844407 90.4807417,284.290652 C85.4256193,283.58882 80.3596466,282.951167 75.3610207,281.926567 C78.1110132,277.858195 81.7215477,274.40158 85.8072509,271.69934 C88.8415965,269.33488 92.245975,267.540893 95.5197757,265.551744 C96.6388543,264.921222 97.7388513,264.00884 99.1078612,264.170599 C106.029611,264.365761 113.213639,263.869975 119.536752,260.796553 C122.93028,259.013825 126.031972,256.5105 128.11598,253.252424 C129.78805,251.008439 131.677875,248.831635 132.504744,246.095617 C132.97243,244.398835 134.35678,243.134037 134.734295,241.41924 C134.749636,240.060614 133.095899,239.850065 132.441138,238.881762 C134.420385,236.70158 136.556774,234.066896 136.156434,230.91053 C135.924088,229.630719 137.088065,228.726219 137.267282,227.528601 C137.27888,226.718305 136.638712,225.89262 135.786027,225.922645 C135.02688,226.117432 134.323106,226.474352 133.581918,226.729189 C130.44281,226.616595 127.367683,227.258377 124.269358,227.637442 C120.74151,227.851744 117.149683,228.230433 113.658876,227.494823 C112.255819,227.221222 110.863986,226.894701 109.475894,226.571558 C113.928263,224.364729 118.822128,223.182874 123.757148,222.754644 C126.645576,222.566989 129.623799,221.310072 131.097571,218.682894 C131.883657,218.371386 132.811171,218.145824 133.275116,217.361424 C133.361544,215.402675 131.093829,214.858099 130.15509,213.469447 C126.911221,208.770928 120.857496,207.468598 115.544585,206.841829 C107.515355,206.319771 99.358915,207.284696 91.7000921,209.765502 C91.6589358,209.5816 91.6248883,209.405204 91.5878475,209.228432 C91.475603,208.673347 91.3596169,208.121264 91.2469981,207.569557 C90.8619992,205.956095 90.91438,204.022867 89.6310501,202.803106 C88.2238771,202.841012 87.2439817,204.007855 86.3232019,204.927367 C83.9847729,207.321852 82.6269874,210.441062 81.2987597,213.469447 C80.7562442,214.839708 79.2409422,215.37265 78.0773399,216.085741 C77.5460488,211.019041 77.1344853,205.937329 76.3225827,200.904407 C75.8062576,199.072889 76.9994176,197.503713 77.493668,195.829826 C76.9623769,196.096297 76.4236028,196.359014 75.8810873,196.603342 C75.8848288,194.632959 75.9222437,192.666329 76.0719031,190.699323 C75.2188442,192.478673 74.863403,194.437422 74.7399339,196.392792 C74.4219076,201.887722 74.7698658,207.393536 75.3984355,212.854313 C73.3892573,208.387735 70.2202183,204.29722 65.9249918,201.853944 C61.8130981,199.504121 56.7097106,199.271804 52.275675,200.791814 C48.0631353,202.274293 44.3253903,204.942379 41.2985278,208.215092 C36.0754126,213.443551 32.3227017,220.064039 30.1863129,227.127394 C29.0788329,230.69998 28.786997,234.516894 29.2659072,238.224968 L29.2958391,238.465542 C27.9750944,234.708678 27.6832585,230.696602 27.5672724,226.74833 C27.3839395,220.941891 29.2771317,215.308847 29.1424382,209.509915 C29.0227106,206.477402 29.1574041,203.441135 28.9628468,200.412374 C29.7261101,200.165044 31.1703239,199.936105 30.8747464,198.810171 C30.156381,198.637528 29.4155667,198.569972 28.6822354,198.483651 L28.4652291,198.461132 C28.0162508,196.250174 28.9216905,194.125913 29.7036612,192.114621 C32.0308658,186.800216 34.732219,181.66596 37.2988787,176.464148 C39.2145198,173.018417 40.969277,169.47548 43.2253933,166.233168 C41.4818606,164.930838 41.5978467,162.600156 42.0430836,160.693576 C43.1206317,155.979668 45.1896737,151.577269 47.0641584,147.14447 C55.0817898,151.325811 63.750814,153.993897 72.4651101,156.287424 C78.3579514,159.410012 84.1535139,162.724009 89.8476822,166.195637 C91.5205008,167.223614 93.2041697,168.346169 95.1793004,168.687702 C98.8500728,169.385781 102.434417,170.819469 106.224543,170.684357 C110.829938,170.568011 115.447307,170.887025 120.038485,170.440405 C122.743205,170.275268 125.470749,170.481689 128.153395,169.986279 C129.256759,163.970042 130.379205,157.953805 132.01835,152.057667 C134.397562,150.319977 136.702317,148.488459 139.044488,146.705731 C139.972377,148.63483 140.870707,150.597707 141.559141,152.624387 C141.2037,156.197349 141.102305,159.785323 140.904381,163.365791 C140.870707,164.198982 140.990435,165.028419 141.132237,165.85035 C141.903358,164.521749 141.955739,162.945443 142.161146,161.459211 C142.382642,159.398753 142.644172,157.342048 142.921042,155.289096 L142.988389,154.789932 C143.512197,154.771167 144.040121,154.752401 144.571038,154.737389 C143.553353,159.22611 143.445224,163.88372 143.949951,168.447503 C144.559439,168.485034 145.173417,168.526319 145.787021,168.567603 C145.22243,163.842436 145.214199,159.023442 146.105047,154.339184 C147.167629,154.384596 148.230211,154.515955 149.299902,154.519708 C150.321702,153.772839 151.028843,152.6394 152.177854,152.042655 C151.526461,156.163571 152.241085,160.382068 153.371014,164.356612 C153.759754,165.673954 153.84955,167.178576 154.837676,168.229823 C154.006692,162.885393 153.228463,157.458019 153.827849,152.042655 C153.962169,150.983902 154.044856,149.914641 153.984618,148.848758 L153.97676,148.694505" id="Fill-41" fill="#99D7A6"></path>
                    <path d="M164.112447,145.617329 C164.228808,145.778713 164.457412,146.105233 164.57265,146.266617 L164.531868,146.375457 C164.479113,147.553934 164.273705,148.713646 163.936972,149.839579 C160.921334,160.584736 160.393784,172.121799 163.061464,182.998315 C159.918615,178.896164 159.05059,173.615537 158.687292,168.590121 C158.564571,163.590978 158.422021,158.528031 159.401916,153.600196 C160.019635,150.492245 161.662148,147.625243 164.112447,145.617329" id="Fill-42" fill="#557B5E"></path>
                    <path d="M153.984618,148.848758 C154.044856,149.914641 153.962169,150.983902 153.827849,152.042655 C153.228463,157.458019 154.006692,162.885393 154.837676,168.229823 C153.84955,167.178576 153.759754,165.673954 153.371014,164.356612 C152.241085,160.382068 151.526461,156.163571 152.177854,152.042655 C152.790709,150.983902 153.360163,149.899629 153.984618,148.848758" id="Fill-43" fill="#557B5E"></path>
                    <path d="M125.27245,154.752401 C127.015983,153.453825 128.523802,151.873765 130.267335,150.582695 C129.799649,151.693616 129.032644,152.620634 128.314279,153.573924 C126.10306,154.395856 124.471772,156.189843 122.391506,157.247845 C123.064973,156.121911 124.269358,155.529295 125.27245,154.752401" id="Fill-44" fill="#4B3774"></path>
                    <path d="M115.870095,158.850798 C118.870767,157.135627 121.007156,154.309534 123.910549,152.47051 C122.552016,154.970082 120.307124,156.835378 117.991518,158.396672 C117.879273,158.53929 117.658151,158.824527 117.546281,158.96677 C116.973459,159.075985 116.405127,159.207344 115.855129,159.405884 C115.85887,159.267394 115.866353,158.989664 115.870095,158.850798" id="Fill-45" fill="#4B3774"></path>
                    <path d="M140.904381,163.365791 C141.102305,159.785323 141.2037,156.197349 141.559141,152.624387 C141.940398,153.547653 142.314547,154.482177 142.921042,155.289096 C142.644172,157.342048 142.382642,159.398753 142.161146,161.459211 C141.955739,162.945443 141.903358,164.521749 141.132237,165.85035 C140.990435,165.028419 140.870707,164.198982 140.904381,163.365791" id="Fill-46" fill="#557B5E"></path>
                    <path d="M144.615935,154.489683 C145.109812,154.422127 145.603688,154.373337 146.105047,154.339184 C145.214199,159.023442 145.22243,163.842436 145.787021,168.567603 C145.173417,168.526319 144.559439,168.485034 143.949951,168.447503 C143.445224,163.88372 143.553353,159.22611 144.571038,154.737389 L144.615935,154.489683" id="Fill-47" fill="#557B5E"></path>
                    <path d="M148.349939,157.045552 C148.465925,156.178583 148.428136,155.199021 149.109087,154.54598 C149.232556,156.869156 148.989359,159.222356 149.461535,161.523013 C149.906397,163.748608 150.508777,165.944178 151.118639,168.131867 C150.392416,168.158514 149.67031,168.188539 148.948577,168.21481 C147.994872,164.57054 148.050246,160.772391 148.349939,157.045552" id="Fill-48" fill="#557B5E"></path>
                    <path d="M132.598281,155.007613 C132.886375,155.439221 133.178211,155.870453 133.380252,156.358733 C134.554704,159.241122 136.077489,161.961752 137.420683,164.765701 C138.17347,166.405811 139.617309,167.527991 140.728157,168.897501 C139.927853,168.961679 139.127175,169.021729 138.330612,169.089285 C136.354733,166.315736 135.153716,163.09932 133.551986,160.11935 C133.114606,163.298235 132.84896,166.521782 132.025833,169.629733 C131.670392,169.663136 130.966993,169.734445 130.611552,169.768598 C130.712572,165.966697 131.457127,162.213586 132.317669,158.520525 C132.583315,157.36832 132.549642,156.178583 132.598281,155.007613" id="Fill-49" fill="#557B5E"></path>
                    <path d="M46.7349076,165.519701 C55.3665169,168.263601 63.6688754,171.945403 71.7314046,176.055059 C75.2151027,177.781115 78.4889034,179.894116 81.8412753,181.857369 C82.5746066,178.111389 83.5661005,174.362406 85.3433066,170.969219 C85.6426255,170.335318 86.1024542,169.813636 86.5738815,169.310719 C86.3160931,172.613456 85.0772869,175.716904 84.2695,178.90367 C83.9103173,180.352371 83.5589917,181.800697 83.16202,183.241891 C81.8412753,182.851943 80.6514826,182.157618 79.4130505,181.579263 C70.7661011,177.450841 62.1797638,173.183929 53.3165565,169.535905 C50.9661547,168.500047 48.5270796,167.629325 46.3345686,166.266946 C46.4355887,166.07929 46.637629,165.707357 46.7349076,165.519701" id="Fill-50" fill="#557B5E"></path>
                    <path d="M197.928376,188.177608 C198.463409,187.145502 198.702864,185.989169 199.290277,184.979957 C200.46922,186.08675 201.085817,187.614641 201.823264,189.022058 C206.627332,197.976981 210.432424,207.460717 213.440953,217.166637 C213.986836,218.607832 214.368094,220.109076 214.548059,221.643723 C212.729697,217.909378 210.641947,214.303013 209.078006,210.448193 C208.797395,210.399778 208.243655,210.30595 207.963043,210.260538 C207.416412,209.919004 206.982399,209.427722 206.780733,208.812212 C204.307611,202.375627 201.740577,195.972819 199.294019,189.524599 C198.24977,194.812733 195.185867,199.706789 190.632478,202.638344 C188.122314,204.338504 185.143717,205.220485 182.139303,205.441918 C182.0308,209.633768 180.826416,213.68375 179.924717,217.751747 C179.142747,221.350981 178.221967,224.924318 177.043399,228.414711 C176.264795,230.654943 175.617518,232.985625 174.248883,234.952255 C174.229801,232.944716 174.37946,230.917661 175.060785,229.01108 C174.936942,226.695411 175.643709,224.470191 176.070612,222.222078 C177.282854,216.588658 178.883836,211.049066 180.25322,205.456931 C178.835945,205.351468 177.410064,205.295547 175.991667,205.216732 C175.35973,204.476994 174.72031,203.749265 174.083509,203.024915 C176.822651,202.990762 179.591351,203.081212 182.293078,202.529504 C185.962728,201.853944 189.289284,199.800617 191.781114,197.045834 C194.183148,194.358606 196.244707,191.367752 197.928376,188.177608" id="Fill-51" fill="#4B3774"></path>
                    <path d="M160.969973,187.618019 C162.301568,190.376931 163.499218,193.198895 164.9135,195.9199 C163.308402,194.306438 161.718644,192.632551 160.48358,190.710958 C160.513511,189.667218 160.880177,188.658006 160.969973,187.618019" id="Fill-52" fill="#557B5E"></path>
                    <path d="M199.294019,189.524599 C201.740577,195.972819 204.307611,202.375627 206.780733,208.812212 C206.982399,209.427722 207.416412,209.919004 207.963043,210.260538 C202.915778,209.727596 197.703887,210.910201 193.382096,213.582416 C186.969937,217.39933 182.203283,223.415192 178.461796,229.776715 C176.591053,232.775826 176.216904,236.408462 174.618541,239.527672 C174.323338,239.98893 173.792047,240.845014 173.174702,240.259529 C172.418921,238.435517 173.7247,236.465134 173.010076,234.622356 C172.011099,229.029846 170.260458,223.546926 167.487642,218.574054 C165.755334,215.593708 163.192416,213.199223 160.255349,211.435261 C165.758701,210.302197 171.790352,209.288857 175.991667,205.216732 C177.410064,205.295547 178.835945,205.351468 180.25322,205.456931 C178.883836,211.049066 177.282854,216.588658 176.070612,222.222078 C175.643709,224.470191 174.936942,226.695411 175.060785,229.01108 C174.37946,230.917661 174.229801,232.944716 174.248883,234.952255 C175.617518,232.985625 176.264795,230.654943 177.043399,228.414711 C178.221967,224.924318 179.142747,221.350981 179.924717,217.751747 C180.826416,213.68375 182.0308,209.633768 182.139303,205.441918 C185.143717,205.220485 188.122314,204.338504 190.632478,202.638344 C195.185867,199.706789 198.24977,194.812733 199.294019,189.524599" id="Fill-53" fill="#7356B0"></path>
                    <path d="M74.7399339,196.392792 C74.863403,194.437422 75.2188442,192.478673 76.0719031,190.699323 C75.9222437,192.666329 75.8848288,194.632959 75.8810873,196.603342 C76.4236028,196.359014 76.9623769,196.096297 77.493668,195.829826 C76.9994176,197.503713 75.8062576,199.072889 76.3225827,200.904407 C77.1344853,205.937329 77.5460488,211.019041 78.0773399,216.085741 L77.9276804,216.153297 C76.524623,215.808011 75.1739464,215.271316 73.7708889,214.921901 C72.6447015,212.077043 69.9620557,210.388143 67.4103619,208.969843 C63.3766653,207.021978 58.4910323,207.521142 54.6032537,209.588731 C50.8804746,211.675836 47.7114356,214.6483 45.1036195,218.01484 C40.2209797,224.406388 36.4046635,231.721202 34.6424233,239.610241 C34.2084109,241.89551 34.1073908,244.229945 34.1073908,246.553496 L33.5274603,246.556874 C32.6744014,240.687384 34.5414032,234.907218 36.7675876,229.559034 C39.7121375,222.950181 43.584576,216.637448 48.8675549,211.649564 C51.7743158,209.04453 55.1682181,206.77052 59.0668471,206.0533 C61.8841864,205.430284 64.8175118,205.817229 67.5222324,206.751754 C64.8732599,203.985711 61.027386,202.416911 57.1994712,202.65711 C51.737275,202.822247 46.9968117,206.087078 43.1393391,209.709206 C37.0182672,215.732573 32.4312048,223.509019 30.7961752,231.998556 C30.302299,235.038952 30.3696458,238.127387 30.3696458,241.197807 C29.9057014,240.244517 29.5165868,239.25332 29.2659072,238.224968 C28.786997,234.516894 29.0788329,230.69998 30.1863129,227.127394 C32.3227017,220.064039 36.0754126,213.443551 41.2985278,208.215092 C44.3253903,204.942379 48.0631353,202.274293 52.275675,200.791814 C56.7097106,199.271804 61.8130981,199.504121 65.9249918,201.853944 C70.2202183,204.29722 73.3892573,208.387735 75.3984355,212.854313 C74.7698658,207.393536 74.4219076,201.887722 74.7399339,196.392792" id="Fill-54" fill="#557B5E"></path>
                    <path d="M28.6822354,198.483651 C29.4155667,198.569972 30.156381,198.637528 30.8747464,198.810171 C31.1703239,199.936105 29.7261101,200.165044 28.9628468,200.412374 C28.8580852,199.767215 28.7645481,199.12881 28.6822354,198.483651" id="Fill-55" fill="#557B5E"></path>
                    <path d="M43.1393391,209.709206 C46.9968117,206.087078 51.737275,202.822247 57.1994712,202.65711 C61.027386,202.416911 64.8732599,203.985711 67.5222324,206.751754 C64.8175118,205.817229 61.8841864,205.430284 59.0668471,206.0533 C55.1682181,206.77052 51.7743158,209.04453 48.8675549,211.649564 C43.584576,216.637448 39.7121375,222.950181 36.7675876,229.559034 C34.5414032,234.907218 32.6744014,240.687384 33.5274603,246.556874 L34.1073908,246.553496 C34.1073908,244.229945 34.2084109,241.89551 34.6424233,239.610241 C36.4046635,231.721202 40.2209797,224.406388 45.1036195,218.01484 C47.7114356,214.6483 50.8804746,211.675836 54.6032537,209.588731 C58.4910323,207.521142 63.3766653,207.021978 67.4103619,208.969843 C69.9620557,210.388143 72.6447015,212.077043 73.7708889,214.921901 C71.1065764,214.445632 68.5440323,213.334711 65.7977812,213.432292 C61.8879279,213.341842 57.5814769,214.333038 54.8988311,217.376436 C53.544413,219.076971 52.1522059,220.750858 50.8954406,222.521951 C46.0202837,229.251655 42.3685929,236.806667 39.2444517,244.485532 C37.5383339,248.793728 36.0716712,253.200256 34.9828986,257.707367 C33.0373256,254.667722 32.4237218,250.959649 32.5022931,247.401324 C32.6220206,245.116055 30.8373316,243.351717 30.3696458,241.197807 C30.3696458,238.127387 30.302299,235.038952 30.7961752,231.998556 C32.4312048,223.509019 37.0182672,215.732573 43.1393391,209.709206" id="Fill-56" fill="#99D7A6"></path>
                    <path d="M86.3232019,204.927367 C87.2439817,204.007855 88.2238771,202.841012 89.6310501,202.803106 C90.91438,204.022867 90.8619992,205.956095 91.2469981,207.569557 C89.0174463,208.755915 86.8735746,210.151697 85.0555863,211.923541 C84.4790232,212.448601 84.1759628,213.184211 83.854195,213.882665 C85.515415,213.424785 86.7164322,212.126209 88.2055438,211.341434 C89.3654046,210.696274 90.6749248,210.245525 91.5878475,209.228432 C91.6248883,209.405204 91.6589358,209.5816 91.7000921,209.765502 C99.358915,207.284696 107.515355,206.319771 115.544585,206.841829 C120.857496,207.468598 126.911221,208.770928 130.15509,213.469447 C130.428219,214.486541 130.749987,215.514893 130.727538,216.577023 C130.428219,218.007334 129.245909,219.118255 127.943872,219.677093 C123.824495,221.516493 119.162603,221.272165 114.945573,222.796304 C112.656158,223.647885 110.298647,224.582784 108.529298,226.335112 C108.765012,226.391784 109.236439,226.511508 109.475894,226.571558 C110.863986,226.894701 112.255819,227.221222 113.658876,227.494823 C117.149683,228.230433 120.74151,227.851744 124.269358,227.637442 C127.367683,227.258377 130.44281,226.616595 133.581918,226.729189 C134.263242,229.296692 134.91052,232.092384 133.922767,234.674525 C133.268007,236.664049 132.122738,238.589395 130.218695,239.595228 C127.348975,241.137757 124.711227,243.235746 121.478583,243.982615 C117.654784,245.131067 113.613978,244.759134 109.71535,244.267852 C107.915695,244.001381 106.205835,243.370858 104.45482,242.916356 C104.716349,243.678238 105.10958,244.413848 105.89155,244.744121 C110.826571,247.360415 116.72278,248.028094 122.163275,246.898782 C125.231294,246.343322 127.816661,244.36881 130.869714,243.813725 C131.146584,244.41047 131.419713,245.116055 131.097571,245.757461 C130.42111,247.349156 129.358154,248.733678 128.448972,250.194014 C126.720406,252.772401 125.074152,255.579353 122.342866,257.219838 C116.622134,260.89038 110.040859,263.415849 103.216388,263.784029 C100.365749,263.892869 97.4024917,264.121434 94.6670909,263.112222 C93.4436248,262.710264 92.3997501,261.918733 91.2099574,261.453347 C91.0827469,261.502137 90.8320673,261.595965 90.7048567,261.641002 C91.3259435,263.83995 93.6531481,264.69566 95.5197757,265.551744 C92.245975,267.540893 88.8415965,269.33488 85.8072509,271.69934 C81.7215477,274.40158 78.1110132,277.858195 75.3610207,281.926567 C80.3596466,282.951167 85.4256193,283.58882 90.4807417,284.290652 C92.9497486,283.844407 95.4640275,284.095866 97.9558575,283.96826 C104.428629,283.641739 110.923476,283.52164 117.340499,282.515806 C117.707165,282.462887 118.440496,282.358175 118.807162,282.301879 C119.069066,282.256466 119.334711,282.215557 119.604098,282.178026 C120.165321,282.084198 120.734027,281.993748 121.298992,281.904049 C125.85949,281.074611 130.450668,280.428701 134.996574,279.51707 C143.396211,277.640515 151.791732,275.692275 160.068275,273.312802 C160.218308,274.427852 160.330179,275.549657 160.315587,276.679718 C160.135621,282.313138 160.183887,287.96157 160.599566,293.587483 C160.809463,296.462366 160.532219,299.344756 160.700586,302.223392 C160.992048,306.524457 160.804973,310.836781 160.883919,315.144978 C163.566564,315.426461 165.676763,317.340923 167.375398,319.288412 C169.006312,321.570304 170.592702,324.100276 170.705321,326.993924 C170.836273,328.960555 170.136989,331.25333 168.250906,332.176595 C169.283182,329.786239 169.104339,327.038962 168.404306,324.58818 C167.495125,321.870553 165.489689,319.217478 162.567588,318.575696 C163.985237,320.121978 165.777783,321.394283 166.64244,323.375925 C168.08628,326.171618 167.801927,329.395915 168.033525,332.435935 C167.05363,333.00228 166.473699,334.061032 165.481831,334.605233 C162.878131,335.862526 159.95603,336.166528 157.105017,336.327911 C149.562181,336.721988 141.772406,336.241215 134.746268,333.242854 C133.061851,332.278305 131.172775,330.938069 130.918353,328.855467 C130.196247,324.970998 129.560194,321.045243 128.239449,317.307145 C126.383672,312.086567 124.06395,306.869743 120.240151,302.782605 C117.883015,300.290164 115.144246,298.185044 112.252077,296.353526 C109.195283,297.235507 106.306481,298.654183 103.661624,300.418145 C102.116391,301.461135 100.339184,302.362257 99.4150373,304.077429 C94.6072271,311.061593 92.3024715,319.341331 90.1810486,327.451429 C89.952818,328.029408 90.4953335,328.487287 90.7385301,328.960555 C92.7364839,331.876346 92.6429467,335.824995 91.2211819,338.96222 C89.0398953,343.301192 84.5201796,346.325824 79.6749546,346.626073 C78.1372037,346.495089 76.6372417,346.156934 75.13279,345.838295 C72.6447015,346.101012 70.1229396,347.230699 67.6423341,346.386249 C65.9811141,346.191087 64.4171727,345.568071 62.7896261,345.24155 C58.4611004,345.541799 53.8358748,344.806189 50.2930613,342.148987 C48.5046307,340.846657 47.6403474,338.733656 46.9743628,336.703222 C46.0053178,332.938852 46.2709633,328.510181 48.9872825,325.518952 C48.2352437,318.031495 48.2614341,310.491495 48.0743598,302.974014 C48.0631353,299.720067 48.2389852,296.466119 48.1791214,293.208044 C48.0706183,289.69926 48.5420456,286.21262 48.7403444,282.718474 C48.8076911,280.425323 48.9573506,278.128044 49.4059548,275.876177 C52.3621033,276.882011 55.2617553,278.079629 58.2961008,278.822745 C56.7774315,276.829843 54.7042738,275.18598 52.2723076,274.491655 C50.4614282,273.966219 48.5532701,273.947453 46.6787853,273.928688 C44.4862742,273.853626 42.353627,274.472514 40.2733605,275.099283 C38.4587395,275.715169 36.5805133,276.304407 35.0465039,277.505027 C34.8743955,278.68388 34.9267763,279.922406 34.4590905,281.040458 C34.455349,276.293148 34.7471849,271.522944 35.7237129,266.868711 C38.0434345,251.938835 43.9512417,237.898822 50.2477893,224.282536 C50.4876186,223.704556 50.6821759,223.107812 50.8954406,222.521951 C52.1522059,220.750858 53.544413,219.076971 54.8988311,217.376436 C57.5814769,214.333038 61.8879279,213.341842 65.7977812,213.432292 C68.5440323,213.334711 71.1065764,214.445632 73.7708889,214.921901 C75.1739464,215.271316 76.524623,215.808011 77.9276804,216.153297 L78.0773399,216.085741 C79.2409422,215.37265 80.7562442,214.839708 81.2987597,213.469447 C82.6269874,210.441062 83.9847729,207.321852 86.3232019,204.927367" id="Fill-57" fill="#7356B0"></path>
                    <path d="M85.0555863,211.923541 C86.8735746,210.151697 89.0174463,208.755915 91.2469981,207.569557 C91.3596169,208.121264 91.475603,208.673347 91.5878475,209.228432 C90.6749248,210.245525 89.3654046,210.696274 88.2055438,211.341434 C86.7164322,212.126209 85.515415,213.424785 83.854195,213.882665 C84.1759628,213.184211 84.4790232,212.448601 85.0555863,211.923541" id="Fill-58" fill="#4B3774"></path>
                    <path d="M130.15509,213.469447 C131.093829,214.858099 133.361544,215.402675 133.275116,217.361424 C132.811171,218.145824 131.883657,218.371386 131.097571,218.682894 C129.623799,221.310072 126.645576,222.566989 123.757148,222.754644 C118.822128,223.182874 113.928263,224.364729 109.475894,226.571558 C109.236439,226.511508 108.765012,226.391784 108.529298,226.335112 C110.298647,224.582784 112.656158,223.647885 114.945573,222.796304 C119.162603,221.272165 123.824495,221.516493 127.943872,219.677093 C129.245909,219.118255 130.428219,218.007334 130.727538,216.577023 C130.749987,215.514893 130.428219,214.486541 130.15509,213.469447" id="Fill-59" fill="#4B3774"></path>
                </g>
                <path d="M154.764389,220.687502 C155.512883,217.484635 161.033029,190.542865 164.307692,170.572043 C161.251215,171.388209 156.822748,171.702467 156.822748,171.702467 L158.195113,167.431725 C126.973541,169.645472 102.058034,173.649057 87.5870172,165.390933 L87.7116416,168.751307 L85.7782805,168.374122 C87.780503,184.599096 89.1760708,196.428229 89.9440261,203.038948 C90.9436403,204.265457 90.9294189,206.029296 91.2842053,207.521832 C91.3968537,208.07574 91.5128703,208.630024 91.6247702,209.187323 C91.6621949,209.3648 91.6962514,209.541899 91.7374186,209.726535 C99.3982587,207.235835 107.556473,206.267061 115.588192,206.791201 C120.902128,207.420471 126.957448,208.727994 130.202171,213.445253 C131.141532,214.839443 133.409844,215.386191 133.323393,217.352752 C132.859326,218.14028 131.931567,218.366742 131.145274,218.679493 C129.67074,221.317148 126.692107,222.579078 123.802918,222.767482 C118.866598,223.19742 113.971445,224.383988 109.517903,226.599619 C110.90636,226.924051 112.298185,227.251874 113.701612,227.526567 C117.193339,228.26511 120.786112,227.884911 124.315263,227.669754 C127.414404,227.289178 130.490341,226.644836 133.630275,226.757879 C134.371659,226.502026 135.075618,226.144058 135.834966,225.948118 C136.687875,225.917974 137.328212,226.746951 137.31661,227.560479 C137.137346,228.762874 135.973063,229.670981 136.20547,230.955896 C136.605915,234.124851 134.468963,236.770043 132.48957,238.95892 C133.144128,239.931085 134.798301,240.142474 134.782957,241.506519 C134.405341,243.228155 133.020627,244.497998 132.552818,246.201546 C131.725731,248.948476 129.835409,251.133963 128.162898,253.386897 C126.078341,256.657967 122.975832,259.171276 119.58141,260.961114 C113.256632,264.046795 106.070712,264.544558 99.1471389,264.348618 C98.8204211,264.310183 98.5094216,264.333922 98.2096496,264.399487 C112.846083,273.717948 136.291547,273.43911 159.068232,260.629146 C155.88713,243.861192 154.015894,223.89037 154.764389,220.687502" id="paper-2" fill="#EFF3FF" sketch:type="MSShapeGroup"></path>
                <path d="M24.3265103,5.40551508 C24.8739413,5.01831087 25.4213723,4.63110665 25.9650537,4.24390244 C27.2998854,6.05586779 28.5784743,7.93549991 29.4258674,10.0369286 C32.6804571,18.0629577 36.1787661,25.9950052 39.2271318,34.1074974 C41.7543132,41.2049883 44.2964928,48.2987199 46.8611694,55.3811737 C48.8296713,61.4711817 50.8394179,67.5461527 52.5791986,73.7075867 C55.2938564,83.2410808 58.4884536,92.6392414 60.8919007,102.259199 C61.1581171,103.4772 61.7430434,104.70648 61.4805764,105.973352 C59.913274,111.420525 56.7899178,116.194791 53.9065313,121.006649 C55.0126418,121.123186 56.1562477,121.401372 57.2661077,121.175816 C58.0197627,120.74726 58.5934404,120.063074 59.3433459,119.626999 C59.8082873,119.664592 60.2694791,119.728499 60.730671,119.818722 C59.6620557,121.792335 58.2372353,123.562949 56.5799442,125.074173 C56.3062288,126.295934 55.9762703,127.536491 55.2676097,128.592844 C52.6729368,132.667887 48.585952,135.483576 44.4352253,137.795523 C47.7423084,139.833044 51.2481164,141.509676 54.5776967,143.505846 C64.3827106,149.219927 74.8513908,154.054341 86.0324813,156.283585 C93.26157,157.851198 100.696883,158.09555 108.068453,157.922624 C110.044454,157.847439 112.069199,158.151939 114.007705,157.670753 C115.500016,156.900104 116.834848,155.851269 118.225923,154.907694 C119.999449,153.693452 121.308034,151.941634 123.021568,150.659725 C123.107807,151.253689 123.314031,151.922838 122.886585,152.445376 C121.889211,154.012989 120.854341,155.561806 120.006948,157.219641 C121.300535,156.97153 122.654115,156.734696 123.741478,155.930214 C133.670226,149.167297 142.537858,140.987139 151.083031,132.573905 C154.195513,129.656716 157.382237,126.810953 160.779308,124.235857 C161.866671,123.408819 162.856546,122.461484 163.737685,121.416409 C162.496592,124.491487 160.21313,126.957564 157.98966,129.344697 C155.886175,131.517552 154.217636,134.085129 151.96417,136.115132 C147.985921,139.836804 143.741456,143.261493 139.485743,146.64859 C139.043298,148.257556 138.229651,149.71615 137.412254,151.155948 C135.837453,153.997952 135.649976,157.339938 135.724967,160.520275 C135.788709,163.602872 137.011055,166.486228 138.23715,169.264324 C129.583241,170.05001 120.914334,170.775548 112.21918,170.647733 C108.203436,170.534955 104.093954,171.07253 100.183197,169.89964 C96.0662164,169.106435 92.1442108,167.617766 88.1247175,166.478709 C91.1205899,168.241804 94.3189367,169.719195 97.7122589,170.50864 C109.860727,173.260422 122.365401,173.418311 134.723843,174.470905 C137.52099,174.655109 140.321887,174.320534 143.115285,174.583683 C135.949938,176.309185 128.529624,176.459556 121.195548,176.583611 C110.614382,176.327981 99.7482522,174.937054 90.1944566,170.095121 C91.4917931,177.801613 92.4779188,185.549457 93.5802798,193.286022 C94.2139499,197.733608 95.0200983,202.157886 95.7062618,206.601336 C101.184321,204.165333 106.90235,201.718052 113.01408,201.849626 C110.974337,203.571369 108.634632,204.87621 106.27243,206.097971 C111.994208,205.924669 117.790978,205.443483 123.456513,206.552466 C126.384894,207.127633 129.215787,208.405783 131.458005,210.405712 C132.354142,211.210194 133.175288,212.292862 133.089049,213.567253 C132.639106,214.251439 131.791713,214.480754 131.109299,214.852921 C129.51575,212.45827 127.363521,210.432026 124.693857,209.311766 C118.199676,206.496077 110.910595,206.740429 104.011465,207.379504 C99.7632503,207.751671 95.6612674,208.93208 91.548036,209.977156 C91.1768328,207.849412 91.071846,205.620168 90.1457128,203.642795 C89.8532496,202.64659 88.6234047,203.240554 88.0459775,203.61648 C84.7201467,206.011132 82.9503699,209.857235 81.3418226,213.503345 C80.7643954,214.999533 79.2233397,215.905515 77.753525,216.315275 C76.6774107,216.13859 75.6612887,215.732589 74.6339183,215.398015 C74.4426924,212.905622 74.4689391,210.401952 74.2814627,207.90956 C74.0377434,204.139018 73.8877623,200.278254 74.93763,196.601693 C75.4438162,194.940099 75.4963095,193.199559 75.7287802,191.489094 C77.4535628,196.323884 79.4820571,201.052662 80.8731317,206.003989 C81.8742555,204.300667 83.2615806,202.857109 84.2514558,201.157922 C83.9027498,199.507605 83.2203358,197.943751 82.8566317,196.297193 C85.305073,193.571726 87.3935597,190.222222 87.6410285,186.481754 C87.1873357,181.688692 86.3136959,176.936982 85.7137715,172.158957 C84.6564048,173.903256 83.9102488,175.805444 82.9916147,177.621168 C83.3215731,174.640072 85.0238585,172.087531 85.8225078,169.241768 C86.7898858,168.26436 88.2409529,168.922231 89.2833215,169.459806 C86.5649142,167.90723 85.0163594,165.023874 82.4141874,163.335964 C79.5345505,161.320999 76.7186555,159.215811 73.7602784,157.317382 C72.2454694,156.321177 70.4494458,155.94901 68.7284127,155.475343 C66.7074175,154.952805 64.7014204,154.358841 62.7029223,153.7536 C60.0632551,157.603086 57.7048024,161.636777 55.5750709,165.787005 C55.2976059,166.456154 54.8776588,167.144099 54.971397,167.895952 C56.2649839,168.865842 57.8622826,169.275602 59.3021011,169.978584 C66.8124043,173.470941 73.8202708,177.921909 81.1018529,181.8541 C81.3418226,181.722526 81.8292612,181.455618 82.0729805,181.320284 C81.7505211,181.538322 81.5217999,182.019507 81.1355986,182.090934 C72.9203843,180.301524 64.9076444,177.685076 56.9661456,174.933294 C54.0677609,174.050243 51.1468792,172.96344 48.0910144,172.873218 C46.4674691,172.749162 45.0913926,174.891943 46.452471,176.094907 C48.578453,177.621168 51.0231448,178.651207 53.3103564,179.91432 C50.6106968,180.869173 47.7385588,181.636063 45.4138519,183.372843 C44.0002801,185.087067 43.6140788,187.365181 43.0703973,189.459091 C41.8255543,194.237116 40.6819484,199.097845 40.6781989,204.060074 C43.8090542,202.060145 47.1386345,200.172994 50.8731637,199.642938 C48.5372082,202.353368 45.90504,204.84576 44.0115287,207.913319 C43.2616232,209.071173 42.6616989,210.338045 41.7655618,211.401917 C40.8581762,212.364288 39.5533407,212.901863 38.7959362,214.022124 C37.528596,215.875441 37.0674041,218.352796 37.8360572,220.491818 C38.2822509,221.732375 39.2383804,222.679709 40.1607641,223.581933 C38.5522169,226.269807 37.5473436,229.641867 38.702198,232.694389 C39.3771129,234.570262 40.8844229,235.946153 42.5154673,236.994987 C43.5878321,234.792059 44.7126903,232.615445 45.8975409,230.476423 C46.0925163,231.476388 46.3137385,232.476352 46.5537082,233.472557 C44.4502234,237.400988 42.961661,241.607605 41.510594,245.810462 C44.7239389,244.171423 48.4772157,243.186496 52.0392667,244.23533 C56.1412495,245.509721 59.3395963,248.941929 60.8956502,252.892916 C62.0205084,255.392827 62.4329564,258.129571 63.4153325,260.682111 C63.7152947,258.253627 63.5390669,255.806346 63.6328051,253.370718 C63.7715376,249.471985 64.1577389,245.584906 64.7651624,241.73542 C65.4138306,236.98371 66.6661727,232.269592 68.8671453,227.99155 C67.6073041,234.871003 66.7936567,241.930901 67.727289,248.908096 C68.1322379,251.825285 68.4659458,254.86653 69.8232747,257.524329 C71.581803,258.678424 73.9627529,258.437831 75.9275052,257.945367 C80.4044408,256.749921 83.6815277,253.163583 86.2237072,249.468226 C92.4629206,253.430491 100.100708,254.216553 107.318548,253.813936 C113.587758,253.505676 119.493263,250.761413 124.453888,247.020945 C117.685991,247.96828 110.584386,247.498372 104.21019,244.90072 C102.729126,244.201497 101.11683,243.543626 100.036966,242.257957 C99.234567,241.498586 100.340678,240.133973 101.296807,240.524937 C108.604636,241.840679 116.242423,242.34442 123.48276,240.367047 C127.438511,239.201676 131.075553,237.209266 134.705095,235.299559 C136.57611,234.404854 136.302394,232.036894 136.133665,230.329812 C136.606106,229.52157 137.191032,228.743403 137.382258,227.811105 C137.382258,226.935196 136.49362,226.540474 135.961187,226.006658 C135.290022,226.344992 134.622606,226.687085 133.95519,227.029178 C130.164418,226.784826 126.471133,227.844938 122.706608,228.04042 C120.576876,228.156957 118.443395,228.390032 116.313664,228.171994 C114.007705,227.942679 111.754239,227.37503 109.489524,226.905122 C109.868226,226.664529 110.250678,226.427696 110.63313,226.190862 C108.638381,225.94651 106.388665,225.740126 104.900103,224.228526 C104.240186,223.672531 104.172694,222.16469 105.207564,222.051912 C108.882101,221.412837 112.609131,221.029392 116.246172,220.164762 C121.750479,218.826463 127.299779,217.679888 132.789462,216.266405 C132.661603,216.037089 132.406635,215.582218 132.279151,215.352903 C134.960063,215.349144 137.644725,215.21757 140.329386,215.251403 C143.242769,215.308168 146.152402,214.980736 149.062035,215.191255 C145.582474,215.796497 141.945433,215.973182 138.735837,217.593425 C137.179783,218.420463 135.503745,218.961797 133.79771,219.390353 C135.38001,219.518168 136.96981,219.619668 138.510866,220.025669 C142.582852,221.003077 146.778573,220.187317 150.835562,219.552001 C152.189141,219.307649 153.598964,219.232464 154.888801,218.717445 C155.698699,216.638572 155.833682,214.364217 156.426107,212.221436 C157.798434,219.35276 158.612082,226.585961 159.421979,233.803372 C160.644325,244.810498 161.487969,255.855216 162.226626,266.90407 C162.282869,268.869789 162.680319,270.835884 162.526588,272.805738 C161.788306,273.174146 161.00053,273.422258 160.228128,273.700443 C160.400606,275.410909 160.460599,277.132652 160.44935,278.854395 C154.73507,279.944581 149.808191,283.282808 144.198899,284.696291 C141.109288,285.590996 137.862197,285.508292 134.705095,286.008274 C132.864077,286.252627 131.090551,286.820275 129.309526,287.339054 C130.955568,291.564467 132.020434,295.977843 133.24278,300.33859 C134.551365,304.928651 136.186159,309.413453 137.768459,313.913293 C139.868194,320.26269 142.807824,326.397809 147.011044,331.626946 C150.355622,332.032946 153.730197,332.11565 157.093523,331.969039 C157.179762,330.833741 157.254753,329.698443 157.318495,328.566905 C158.113394,329.645813 158.78081,330.848778 159.781934,331.75852 C163.763932,331.397631 167.408473,329.596943 170.970524,327.905274 C170.670561,329.175905 170.599695,330.638259 169.65069,331.638224 C168.837043,332.442706 167.854666,333.051707 167.03352,333.85243 C164.712562,336.288433 161.120515,336.442563 157.98966,336.739545 C150.37062,337.254564 142.500363,336.81849 135.346265,333.935134 C133.801459,333.23967 132.331645,332.202113 131.428009,330.743519 C130.880578,329.593184 130.786839,328.292478 130.539371,327.063199 C129.399514,319.916838 127.048561,312.871977 123.08531,306.789487 C120.400649,302.571593 116.396153,299.436366 112.267924,296.737214 C108.342169,297.88379 104.750122,299.92883 101.439289,302.308444 C99.860738,303.40239 98.9533524,305.154207 97.9784753,306.763172 C94.6226484,312.330642 92.6466475,318.593953 90.9818574,324.841474 C90.7418876,325.743697 90.4719216,326.638402 90.0969689,327.491755 C89.3995568,326.49555 89.6770219,325.194845 89.3545625,324.070825 C88.2259548,319.435652 89.9807336,314.792961 91.7092657,310.552511 C93.8389972,305.225633 97.2660651,300.552868 100.985596,296.237232 C103.186569,293.782809 105.447534,291.350189 108.109698,289.387853 C100.981847,291.256207 94.3039386,294.534286 87.9559888,298.237161 C82.6429086,301.428776 77.6410392,305.124133 72.9203843,309.142786 C72.4666915,309.642769 71.6155488,310.086362 71.7505318,310.879567 C71.9905015,312.980995 72.5491811,315.056109 72.4179476,317.19513 C71.090615,315.811721 70.2319732,314.089978 69.3958286,312.387031 C68.4734449,313.394514 67.5623097,314.447108 67.044875,315.732777 C65.5563126,319.101077 64.4764488,322.657341 63.8352796,326.288791 C63.4303306,328.548108 62.3354687,330.702167 62.5266946,333.051707 C62.6466794,336.529026 65.1926085,339.938679 68.6871679,340.566476 C71.5255601,341.224347 74.660165,340.134161 76.4786857,337.852287 C77.6335401,336.487674 78.165973,334.750894 78.7434002,333.0893 C79.9282508,334.322338 80.8018907,335.803488 81.9192498,337.092916 C83.9552432,339.243215 87.7197686,339.453734 89.9094925,337.416213 C91.349311,336.235804 91.8142524,334.352412 92.2679452,332.634429 C92.2941919,335.198247 92.1892052,337.912436 90.7981305,340.160476 C88.327192,344.239277 83.726522,347.348189 78.8296393,346.968503 C77.1948454,346.968503 75.6162944,346.171539 73.9740015,346.464762 C72.2792151,346.656484 70.7156622,347.611337 68.9683825,347.348189 C66.3924572,346.788434 63.887773,345.667798 61.206861,345.754637 C57.1948667,345.840724 52.9279046,344.961056 49.7895503,342.310775 C48.244745,341.05894 47.4573443,339.156752 46.8986647,337.303435 C46.1487593,334.769691 46.1937536,332.029187 46.8461713,329.484165 C47.2023764,328.157145 48.1960012,327.153421 48.7734284,325.939179 C48.7959255,323.412953 48.3497318,320.901765 48.3122365,318.37178 C48.1472573,311.255493 47.7948017,304.135446 48.0572687,297.0154 C48.2035002,294.113248 47.9522819,291.203578 48.2334964,288.305185 C48.6159482,284.29405 48.6121987,280.249458 49.2346202,276.260502 C48.4059747,275.96728 47.5773292,275.674057 46.7449341,275.388353 C46.6699436,275.102649 46.5124634,274.527481 46.4374729,274.241777 C42.406731,274.538759 38.3647405,275.647742 34.9301735,277.820597 C34.7314486,279.091228 34.8589325,280.500952 34.1390233,281.624972 C33.5728446,281.493398 33.1753947,281.079879 33.1566471,280.485915 C32.1405252,274.617704 32.4892312,268.561529 33.8053153,262.768879 C34.0827804,261.268557 34.6339609,259.809962 34.6527085,258.276182 C33.9927917,256.264976 32.9054288,254.389103 32.6467114,252.253841 C32.0692842,249.85919 32.8904307,247.223945 31.6943315,244.975905 C30.1570253,241.806846 28.8446907,238.498693 28.1247815,235.04017 C27.5323561,232.047796 27.517358,228.987755 27.5136085,225.954028 C27.3861246,220.506855 29.1296548,215.214187 28.960926,209.766637 C28.8634383,207.131768 28.9421784,204.492389 28.8671879,201.860904 C28.8446907,199.770753 27.9035593,197.721954 28.4247436,195.631803 C29.2571387,192.293577 30.9894203,189.286165 32.4329883,186.188532 C35.75132,179.497041 38.9496668,172.70781 43.0441506,166.448635 C42.4592244,165.685504 41.6793227,164.948689 41.6493265,163.92241 C41.518093,162.219463 41.923042,160.531553 42.3992319,158.91131 C43.6140788,154.952805 45.2713699,151.14843 46.9024142,147.347814 C42.6092055,145.047144 38.4209835,142.535955 34.5289741,139.59997 C36.4187359,138.705265 37.0561555,136.43467 38.979663,135.61515 C41.1881346,134.457297 43.374109,133.250573 45.4663453,131.889719 C42.2942452,132.322034 39.1033974,132.615257 35.9050506,132.743072 C39.7070713,129.570253 43.0928945,125.950082 46.2949908,122.17954 C42.7629361,123.905042 39.0396555,125.814748 35.0014145,125.64934 C36.6249599,124.239616 38.6759513,123.521597 40.5244683,122.48404 C43.7003179,120.720945 46.9286609,118.991684 49.7408064,116.66094 C44.6077035,118.093219 39.1108965,118.642072 33.8690573,117.503015 C32.6992048,117.284978 31.9343012,116.30005 31.1469005,115.503086 C27.2211454,111.420525 23.8728175,106.785353 21.2294007,101.778013 C18.9271909,97.3420809 16.9624386,92.6091672 16.4937477,87.5905495 C16.1712884,83.8538409 16.2387799,80.0682618 16.8574519,76.3616273 C17.5886097,71.3580466 19.9470624,66.7567072 22.8491965,62.6816648 C23.9253109,61.1215701 25.4363704,59.9486797 26.7449554,58.5991038 C25.106412,58.6216594 23.4266237,58.7043632 21.8968166,59.3509567 C18.8297032,60.5012915 16.4487534,62.8433131 14.135295,65.0763161 C15.2976485,62.4598682 16.5987345,59.7419201 18.9684357,58.0013808 C23.0404224,55.001488 28.4359922,54.1857276 33.3141273,55.3172662 C33.2878806,54.5127836 33.2578843,53.7120603 33.2353872,52.9113371 C30.1645243,51.2948534 26.898686,49.7911478 23.3553827,49.8024255 C20.3370132,49.5016844 17.3823857,50.2798521 14.3902629,50.4602968 C17.4236305,48.0694047 21.4881181,47.7837007 25.2001501,47.9340712 C28.0760376,48.0280528 30.8131925,49.1295173 33.1903929,50.7084082 C32.2980054,38.6298923 31.0756594,26.5062652 28.0685385,14.7472867 C27.2436425,11.4804861 25.9575547,8.34525971 24.3265103,5.40551508 Z M114.112691,10.9053186 C114.405154,9.41289074 114.783857,7.93549991 115.271295,6.49570171 C118.023448,13.3488404 120.14943,20.4312942 122.264164,27.5024702 C123.632741,33.006033 125.181296,38.4795217 126.122427,44.0808254 C125.30878,42.4568233 124.330153,40.8779323 122.744103,39.9080421 C121.630494,43.5470099 121.038068,47.3175519 119.984451,50.9677975 C119.523259,46.2123282 120.044444,40.9080064 117.176055,36.7916121 C114.513891,38.8855222 111.761738,40.8553767 108.960841,42.7613237 C109.107072,41.1485993 109.223308,39.535875 109.36204,37.9231506 C109.755741,33.6902191 110.910595,29.5888618 111.58176,25.4010415 C112.316668,20.5515906 113.145313,15.7134176 114.112691,10.9053186 Z M256.66972,40.7350802 C257.044673,40.1411165 257.547109,39.6411344 258.060795,39.1637078 C257.055921,41.1861919 255.608604,42.9342498 254.420003,44.843956 C251.259152,49.794907 248.162042,54.7947284 244.802466,59.6216237 C240.955451,65.6251687 237.273415,71.7414915 233.90634,78.0344999 C232.327789,80.7787627 230.831727,83.5756553 229.553138,86.474048 C231.274171,84.5267492 232.942711,82.5343391 234.802477,80.7186145 C234.423774,83.5530997 233.831349,86.3575108 233.013952,89.0980145 C234.345034,86.5567518 235.477391,83.9064706 236.902212,81.4103191 C238.9757,77.7224809 240.839216,73.9143463 243.02519,70.2866563 C244.903703,66.9973001 247.607112,64.3056669 249.695599,61.162922 C254.202531,54.9601361 258.270768,48.4603682 262.62022,42.1523229 C262.927681,41.5320443 263.632592,41.5508406 264.221268,41.4606182 C263.475112,42.7462866 262.605222,43.9530104 261.735331,45.1522157 C262.027794,45.1973269 262.62022,45.2875492 262.916432,45.3289011 C260.096788,48.6107388 257.614601,52.1632435 255.008679,55.614248 C251.697472,60.3734765 248.698225,65.3394646 245.649859,70.26786 C241.20292,76.9142391 237.018447,83.7373037 232.916464,90.6054794 C231.274171,93.2820755 230.524266,96.3721907 229.118193,99.165324 C224.525022,108.552207 220.528026,118.326294 218.345801,128.581567 C217.832116,131.258163 217.535903,133.968592 217.160951,136.667744 C216.036092,134.780593 214.982475,132.852091 213.733508,131.043885 C213.640144,132.634053 213.5989,134.224222 213.550156,135.81815 C212.661518,134.524963 211.806626,133.216739 210.996728,131.878441 C210.130587,133.404703 208.837,134.596389 207.708392,135.908373 C207.56591,141.344269 207.340939,146.791442 207.235952,152.231098 C207.187208,157.494068 207.363436,162.757038 207.517166,168.016248 C207.509667,175.72274 208.480795,183.380361 209.481919,191.007908 C210.475543,199.109123 212.230322,207.086281 214.033845,215.040884 C214.806247,218.424222 216.092335,221.687264 216.579774,225.134509 C214.873739,223.08571 214.217572,220.439188 212.901488,218.164833 C211.525411,215.732589 210.370557,213.191326 209.256947,210.631267 C203.67765,209.845581 197.820889,211.089898 193.081486,214.157457 C188.042121,217.247573 184.041376,221.762449 180.768038,226.638215 C179.290725,228.874977 177.772166,231.138054 176.977266,233.720668 C176.047384,236.276968 175.649934,239.197916 173.625189,241.186567 C172.7403,239.600158 173.340225,237.806989 173.325227,236.11156 C172.492832,230.356127 170.719305,224.736027 168.038393,219.574557 C166.429846,216.683683 164.161382,214.108587 161.360485,212.334214 C159.898169,211.315454 158.07215,211.928214 156.441105,211.980843 C158.038404,203.187924 159.703194,194.410042 161.551711,185.665994 C162.75156,180.703765 163.175256,175.594925 164.393853,170.636455 C161.892918,171.256734 159.361987,171.756716 156.812308,172.110087 C156.831056,170.775548 156.947291,169.448528 157.161014,168.132785 C156.96229,168.023767 156.56484,167.805729 156.366115,167.696711 C156.317371,162.956279 156.429857,158.080513 158.158389,153.603229 C159.421979,150.486799 161.128014,147.426758 163.816425,145.329089 C164.112638,145.689978 164.408851,146.054627 164.708813,146.423035 C165.21125,144.975718 165.709937,143.517123 166.452343,142.175066 C166.726059,144.70881 165.908662,147.16361 165.646195,149.66352 C164.678817,156.704622 164.172631,164.061502 166.332358,170.937197 C167.794674,175.328017 170.415594,179.211337 173.332351,182.756323 C175.338723,182.733768 177.42721,182.748805 179.290725,181.895452 C182.841527,180.391746 185.248724,177.091112 186.830649,173.685219 C188.188353,170.76427 188.942008,167.531303 188.825773,164.298336 C188.750782,161.903685 187.993378,159.546626 188.312087,157.140697 C188.627048,154.407712 188.278342,151.667208 188.019624,148.945501 C187.502189,144.062217 186.684793,139.205247 185.571183,134.423463 C185.263722,132.961109 184.615053,131.585219 184.390082,130.107828 C184.671296,128.746974 185.496192,127.577843 185.953635,126.277138 C187.839647,121.344983 188.717036,115.736161 187.059745,110.619802 C186.508565,108.702577 184.87752,107.484576 183.737289,105.954555 C182.860275,104.563627 184.72004,103.676441 185.364959,102.653921 C189.391951,97.5300441 190.288088,90.3272939 188.480816,84.1508227 C189.816023,84.5305084 191.086738,85.1131944 192.211596,85.9402325 C193.36645,86.0567697 194.547551,86.2071403 195.58992,86.7672706 C194.930003,87.5040864 194.168849,88.1356428 193.437691,88.7972733 C195.687408,93.146742 195.769897,98.1352856 195.822391,102.924588 C199.508176,104.70272 202.777764,107.210149 205.957363,109.76269 C209.455672,112.488156 212.620273,115.612105 215.634893,118.863869 C216.651015,115.036938 217.517156,111.149858 219.073209,107.495854 C220.490531,104.165145 221.615389,100.725419 222.837735,97.3195253 C225.083702,90.8611094 228.083324,84.6996753 231.082945,78.5645561 C234.708738,71.8542695 238.799473,65.4033721 243.287657,59.241938 C247.715849,53.0504298 252.391509,47.0356071 256.66972,40.7350802 Z M134.472625,62.9673689 C137.408505,62.2380716 140.666844,62.0463491 143.460242,63.4034435 C146.789822,64.9785752 149.586969,67.6326158 151.40549,70.8430274 C154.408861,76.0420898 155.758691,82.0456348 156.197386,87.9927908 C156.294874,89.8009969 156.598585,91.8046847 155.466228,93.3722979 C153.523973,96.37595 151.218014,99.4359911 147.959674,101.063752 C146.493609,100.214159 144.896311,99.221713 144.052667,97.7104888 C141.836696,85.9026399 139.043298,74.1135873 134.472625,62.9673689 Z M163.876418,97.6202665 C165.158756,97.7180073 166.437345,97.842063 167.719683,97.969878 C166.801049,100.394603 166.133633,102.905792 165.848669,105.484647 C164.986278,105.014739 164.116388,104.55235 163.250247,104.093719 C163.388979,101.928383 163.553959,99.7668063 163.876418,97.6202665 Z M101.139327,113.724954 C101.836739,113.040768 102.85661,113.44301 103.599017,113.822695 C107.311049,115.785031 109.935718,119.26611 111.892971,122.901318 C114.476396,127.457547 114.262672,132.912239 114.322665,137.983486 C114.4389,139.998452 113.194057,141.675084 111.971711,143.137438 C110.363164,140.276638 109.688249,137.039911 108.634632,133.961074 C105.788741,134.701649 102.77787,134.930964 99.9094819,134.164074 C96.1562051,133.179147 92.5304121,131.619052 89.2195795,129.596568 C89.0283536,128.277066 89.4520502,126.968842 89.6957695,125.683174 C93.1528337,127.111694 96.5499054,128.746974 100.190696,129.667994 C102.672884,130.276995 105.230061,130.438643 107.772241,130.589014 C106.343671,125.412507 103.41529,120.871316 101.000594,116.134643 C100.584397,115.401586 100.344427,114.296363 101.139327,113.724954 Z M123.359026,119.581888 C123.666487,117.965404 124.135178,116.112087 125.653736,115.213623 C126.958572,116.070735 127.45351,117.649626 127.708477,119.11198 C128.042185,120.946501 128.049684,122.818615 128.00469,124.67945 C130.085678,123.292282 132.354142,121.916391 134.952564,121.995336 C134.27015,123.60806 133.058678,124.905006 131.65298,125.90497 C129.845708,127.18312 128.08343,128.604122 126.002442,129.408605 C124.697607,129.987531 123.175299,128.814641 123.122806,127.446269 C122.856589,124.83358 122.942828,122.17578 123.359026,119.581888 Z M153.752694,149.652243 C154.356368,148.438 155.173765,147.336536 156.223633,146.471905 C155.544968,147.637277 154.697575,148.69363 153.752694,149.652243 Z" id="shading" fill-opacity="0.5" fill="#552921" sketch:type="MSShapeGroup"></path>
            </g>
            <text id="LOGO-IDEAS" sketch:type="MSTextLayer" transform="translate(218.250000, 44.500000) rotate(-345.000000) translate(-218.250000, -44.500000) " font-family="CCLegendaryLegerdemain" font-size="14" font-style="italic" font-weight="normal" sketch:alignment="middle" fill="#999999">
                <tspan x="197.978" y="40.5">LOGO </tspan>
                <tspan x="195.941" y="57.5">IDEAS</tspan>
            </text>
            <text id="800px-by-200px" sketch:type="MSTextLayer" font-family="CCLegendaryLegerdemain" font-size="14" font-weight="normal" fill="#000000">
                <tspan x="276" y="152">800px by 200px</tspan>
            </text>
            <text id="Site-banner" sketch:type="MSTextLayer" font-family="CCLegendaryLegerdemain" font-size="72" font-weight="bold" fill="#4A4A4A">
                <tspan x="269" y="126.75">Site banner</tspan>
            </text>
            <rect id="Rectangle-2" fill="#D8D8D8" sketch:type="MSShapeGroup" x="0" y="198" width="800" height="2"></rect>
            <rect id="Rectangle-2" fill="#D8D8D8" sketch:type="MSShapeGroup" x="0" y="0" width="800" height="2"></rect>
        </g>
    </g>
</svg>