<?xml version="1.0" encoding="utf-8"?>
<!-- Generator: Adobe Illustrator 16.0.0, SVG Export Plug-In . SVG Version: 6.00 Build 0)  -->
<!DOCTYPE svg PUBLIC "-//W3C//DTD SVG 1.1//EN" "http://www.w3.org/Graphics/SVG/1.1/DTD/svg11.dtd">
<svg version="1.1" id="Layer_1" xmlns="http://www.w3.org/2000/svg" xmlns:xlink="http://www.w3.org/1999/xlink" x="0px" y="0px"
	 width="507.349px" height="147.419px" viewBox="0 0 507.349 147.419" enable-background="new 0 0 507.349 147.419"
	 xml:space="preserve">
<g>
	<polygon fill="#333333" points="17.219,17.798 34.484,17.798 17.268,116.644 0,116.644 	"/>
	<polygon fill="#333333" points="33.277,116.644 45.087,48.857 62.347,48.857 50.538,116.644 	"/>
	<path fill="#333333" d="M88.382,48.857l5.005,34.375c0.913,5.986,1.36,11.416,1.634,17.002h0.419
		c2.224-5.586,4.678-10.871,7.555-17.002l16.711-34.375h18.098l-37.71,67.787H83.256L69.87,48.857H88.382z"/>
	<path fill="#333333" d="M144.389,87.552c-1.713,12.244,6.971,17.549,17.833,17.549c7.927,0,13.834-1.117,19.324-3.064l0.444,11.824
		c-6.254,2.365-14.67,4.32-24.421,4.32c-21.99,0-32.559-13.656-28.94-34.395c3.269-18.784,17.767-36.479,39.479-36.479
		c22.142,0,26.082,18.113,23.492,33.002c-0.558,3.191-1.272,5.703-1.825,7.242H144.389z M176.281,75.562
		c1.226-6.258,0.229-16.554-11.182-16.554c-10.583,0-16.71,9.605-18.614,16.554H176.281z"/>
	<path fill="#333333" d="M194.938,116.644l9.58-54.98l2.229-12.807l0.513-2.93c1.527-8.768,5.422-17.539,12.233-23.115
		c5.834-4.742,12.974-6.551,18.82-6.551c4.593,0,8.093,0.71,10.71,1.685l-3.559,13.215c-1.689-0.69-3.96-1.244-7.021-1.244
		c-8.485,0-12.647,7.095-14.106,15.467l-0.608,3.473h14.895l-2.229,12.807h-14.757l-9.582,54.98H194.938z"/>
	<path fill="#333333" d="M359.016,87.552c-1.714,12.244,6.972,17.549,17.834,17.549c7.931,0,13.833-1.117,19.327-3.064l0.438,11.824
		c-6.247,2.365-14.66,4.32-24.412,4.32c-21.997,0-32.564-13.656-28.944-34.395c3.264-18.784,17.767-36.479,39.479-36.479
		c22.132,0,26.079,18.113,23.493,33.002c-0.565,3.191-1.275,5.703-1.821,7.242H359.016z M390.912,75.562
		c1.214-6.258,0.23-16.554-11.186-16.554c-10.58,0-16.712,9.605-18.616,16.554H390.912z"/>
	<path fill="#333333" d="M49.157,25.721h8.816c2.286,0,4.108,0.815,5.458,2.459c1.344,1.621,1.82,3.6,1.423,5.881l-0.895,5.137
		H46.812L49.157,25.721z"/>
	<path fill="#333333" d="M311.07,48.689h-12.033c-4.208,0-7.139,1.916-8.863,5.65h-0.031l-2.396,4.739h0.01l-12.106,25.964
		c-2.041,4.469-4.154,9.459-5.953,13.373h-0.418c-0.295-3.914-0.798-9.053-1.457-13.229l-5.923-36.33h-18.793l13.949,62.221
		c0.544,1.664,0.502,2.646,0.387,3.348c-0.147,0.826-0.732,1.801-1.648,3.057c-3.16,4.582-7.634,8.643-11.19,10.727
		c-3.92,2.502-7.808,4.039-10.853,4.729l1.381,14.482c4.413-0.566,11.757-2.795,19.479-8.779
		c9.289-6.959,17.522-18.248,31.261-43.574l19.496-35.988h0.03l2.596-4.739h-0.01l2.887-5.263L311.07,48.689z"/>
	<path fill="#333333" d="M308.224,76.775l-6.886,39.596h16.785l6.884-39.596c1.623-9.281,9.732-15.007,20.082-13.102l2.753-15.767
		C326.556,45.257,311.469,58.211,308.224,76.775"/>
	<g>
		<defs>
			<path id="SVGID_1_" d="M461.183,112.75c-0.592,0.025-1.124,0.074-1.73,0.074c-2.459,0-4.658-0.176-6.723-0.447
				c-43.204-5.422-4.161-65.423,6.226-84.206c10.538,18.801,50.384,78.763,7.24,84.206c-0.758,0.092-1.49,0.209-2.295,0.271
				C463.046,112.73,462.102,112.742,461.183,112.75 M496.808,91.05C496.194,62.648,470.203,20.165,458.793,0
				c-1.253,23.364-36.648,62.576-36.93,90.998c-0.105,8.787,2.167,15.957,7.79,21.096c4.745,4.299,12.197,7.26,23.093,8.139
				c2.128,0.158,4.357,0.273,6.741,0.273c0.618,0,1.147-0.02,1.757-0.041c0.773-0.012,1.554-0.035,2.311-0.062l8.249-0.781
				l7.425-1.93c4.187-1.414,7.525-3.275,10.021-5.561C494.845,106.986,497.008,99.83,496.808,91.05"/>
		</defs>
		
			<linearGradient id="SVGID_2_" gradientUnits="userSpaceOnUse" x1="467.54" y1="121.644" x2="529.0432" y2="15.1174" gradientTransform="matrix(-1 0 -0.1763 1 961.6503 0)">
			<stop  offset="0" style="stop-color:#EF4523"/>
			<stop  offset="1" style="stop-color:#EBB120"/>
		</linearGradient>
		<use xlink:href="#SVGID_1_"  overflow="visible" fill="url(#SVGID_2_)"/>
		<clipPath id="SVGID_3_">
			<use xlink:href="#SVGID_1_"  overflow="visible"/>
		</clipPath>
	</g>
	<g>
		<defs>
			<path id="SVGID_4_" d="M466.675,115.73c47.43,0,30.122-57.047,26.656-74.351C477.537,58.707,419.216,115.73,466.675,115.73"/>
		</defs>
		<clipPath id="SVGID_5_">
			<use xlink:href="#SVGID_4_"  overflow="visible"/>
		</clipPath>
		
			<linearGradient id="SVGID_6_" gradientUnits="userSpaceOnUse" x1="-135.2866" y1="379.4253" x2="-133.8859" y2="379.4253" gradientTransform="matrix(34.1045 0 6.0135 -34.1045 2784.9189 13018.6934)">
			<stop  offset="0" style="stop-color:#F9A61C"/>
			<stop  offset="1" style="stop-color:#FFC612"/>
		</linearGradient>
		<polygon clip-path="url(#SVGID_5_)" fill="url(#SVGID_6_)" points="432.325,41.379 527.216,41.379 514.104,115.73 419.216,115.73 
					"/>
	</g>
	<g>
		<defs>
			<path id="SVGID_7_" d="M465.859,114.013c-0.767-0.006-1.558-0.016-2.247-0.086c-0.653-0.053-1.232-0.15-1.842-0.229
				c-34.509-4.553,16.551-54.751,30.924-70.492c3.148,15.722,18.118,65.955-19.649,70.492c-1.811,0.229-3.699,0.377-5.759,0.377
				C466.776,114.076,466.345,114.033,465.859,114.013 M442.444,95.845c-2.765,7.352-3.065,13.342,0.1,17.648
				c1.416,1.912,3.662,3.471,6.751,4.656l5.644,1.613l6.674,0.654c0.627,0.023,1.273,0.043,1.916,0.055
				c0.508,0.016,0.939,0.033,1.458,0.033c1.995,0,3.9-0.098,5.726-0.229c9.377-0.736,16.494-3.215,21.738-6.814
				c6.219-4.301,10.241-10.301,12.746-17.658c8.151-23.794-9.899-56.619-4.051-76.181C485.642,36.506,451.341,72.071,442.444,95.845
				"/>
		</defs>
		
			<linearGradient id="SVGID_8_" gradientUnits="userSpaceOnUse" x1="267.6182" y1="121.4585" x2="319.1062" y2="32.2786" gradientTransform="matrix(1 0 -0.1763 1 207.4179 0)">
			<stop  offset="0" style="stop-color:#EF4523"/>
			<stop  offset="1" style="stop-color:#EBB120"/>
		</linearGradient>
		<use xlink:href="#SVGID_7_"  overflow="visible" fill="url(#SVGID_8_)"/>
		<clipPath id="SVGID_9_">
			<use xlink:href="#SVGID_7_"  overflow="visible"/>
		</clipPath>
	</g>
</g>
</svg>
